<?xml version="1.0" standalone="no"?>
<!DOCTYPE svg PUBLIC "-//W3C//DTD SVG 20010904//EN"
 "http://www.w3.org/TR/2001/REC-SVG-20010904/DTD/svg10.dtd">
<svg version="1.0" xmlns="http://www.w3.org/2000/svg"
 width="714.000000pt" height="714.000000pt" viewBox="0 0 714.000000 714.000000"
 preserveAspectRatio="xMidYMid meet">
<metadata>
Created by potrace 1.14, written by Peter Selinger 2001-2017
</metadata>
<g transform="translate(0.000000,714.000000) scale(0.100000,-0.100000)"
fill="#000000" stroke="none">
<path d="M3460 6260 c-33 -6 -189 -63 -695 -255 -121 -46 -645 -243 -1165
-438 -520 -196 -1041 -392 -1159 -436 -118 -45 -230 -93 -248 -107 -71 -54
-116 -162 -106 -255 6 -56 46 -140 85 -179 17 -18 28 -37 24 -45 -3 -8 0 -15
5 -15 7 0 9 9 6 21 -5 19 -4 20 12 5 10 -9 23 -16 30 -16 7 0 9 -5 5 -12 -5
-8 -2 -9 10 -5 11 4 15 3 10 -4 -4 -8 1 -9 15 -4 13 4 21 2 21 -5 0 -7 6 -10
14 -7 8 3 23 -3 34 -13 12 -12 23 -15 29 -9 6 6 14 5 22 -5 7 -8 19 -12 27 -9
8 3 14 0 14 -5 0 -6 -9 -9 -19 -7 -11 2 -22 -3 -25 -11 -4 -12 -2 -12 14 -4
11 6 20 8 20 4 0 -3 7 0 17 7 15 13 15 12 4 -8 -6 -13 -17 -20 -25 -17 -8 3
-17 1 -21 -5 -4 -7 0 -8 11 -4 11 4 15 3 10 -5 -3 -6 -1 -14 5 -18 7 -4 10 -3
7 2 -6 10 11 28 30 31 7 2 12 -4 12 -12 0 -8 5 -16 10 -16 6 -1 14 -2 19 -3 5
0 12 -4 16 -8 4 -4 13 -4 21 -1 8 3 14 -1 14 -8 0 -7 2 -10 5 -7 12 11 -8 36
-25 33 -13 -3 -17 1 -13 12 5 12 7 12 14 1 5 -7 9 -9 9 -4 0 5 6 3 13 -3 8 -6
18 -7 22 -3 5 4 5 1 1 -6 -5 -8 0 -11 16 -8 13 2 32 -1 43 -7 11 -6 23 -10 28
-9 4 1 7 -3 7 -10 0 -6 3 -9 6 -5 4 3 19 0 35 -9 16 -8 31 -14 34 -14 8 0 7
-11 -1 -18 -4 -4 -4 -2 -1 4 3 6 1 11 -6 12 -38 5 -54 9 -72 19 -11 6 -27 8
-35 6 -13 -4 -13 -3 0 7 13 10 13 11 -1 7 -9 -3 -22 0 -28 6 -8 8 -11 8 -11
-2 0 -7 -4 -10 -9 -7 -5 3 -11 0 -14 -7 -3 -7 3 -13 13 -13 10 0 16 4 13 9 -3
5 0 7 8 5 8 -3 13 -12 11 -21 -1 -8 2 -18 8 -22 5 -3 7 0 4 8 -4 10 2 15 20
15 27 0 35 -13 14 -21 -7 -2 -6 -3 2 -2 8 2 24 6 35 11 18 7 19 6 6 -9 -8 -10
-11 -20 -7 -24 3 -3 6 -1 6 6 0 7 5 9 12 5 7 -4 8 -3 4 4 -4 7 -3 12 2 12 17
0 22 -13 9 -29 -10 -14 -10 -14 4 -4 9 7 20 9 24 5 5 -4 5 -2 2 4 -4 7 0 15 9
18 8 3 12 2 9 -4 -3 -6 1 -10 10 -10 9 0 13 5 10 10 -3 6 -1 10 4 10 6 0 11
-4 11 -9 0 -13 -26 -32 -34 -24 -4 4 -4 0 0 -10 6 -16 7 -17 19 -1 7 10 19 15
28 11 9 -3 19 -2 22 2 5 10 55 -9 55 -21 0 -4 9 -5 20 -3 11 2 26 -3 35 -11 8
-8 17 -15 20 -14 19 1 24 -2 29 -16 3 -8 1 -24 -4 -34 -7 -13 -7 -21 2 -26 6
-4 8 -3 5 3 -10 16 17 45 46 48 15 2 25 -1 21 -6 -5 -9 9 -13 34 -10 6 1 12
-3 12 -9 0 -5 3 -9 8 -9 25 4 32 -2 23 -20 -10 -17 -8 -18 13 -8 17 8 21 14
13 20 -8 6 -7 7 3 4 8 -2 14 -10 12 -16 -1 -7 7 -10 22 -7 31 6 38 -2 26 -25
-7 -12 -7 -20 0 -24 13 -8 52 19 42 31 -4 4 1 2 11 -5 9 -7 17 -11 17 -7 0 4
11 -1 25 -10 14 -9 25 -13 25 -9 0 4 7 1 17 -6 9 -8 18 -13 20 -11 11 7 12 -1
3 -17 -12 -24 5 -40 23 -22 9 9 7 10 -8 5 -18 -7 -19 -6 -6 10 13 15 15 16 23
2 5 -9 7 -20 3 -25 -3 -5 6 -8 20 -6 21 2 25 -1 20 -19 -2 -11 -2 -15 1 -8 3
6 10 12 15 12 6 0 7 -6 3 -12 -5 -8 0 -7 11 2 17 14 17 13 10 -10 -8 -28 -3
-25 14 7 10 19 9 21 -9 18 -25 -5 -36 11 -11 18 26 6 41 -5 36 -28 -2 -11 -4
-20 -5 -20 -1 0 -3 -8 -5 -18 -2 -9 1 -15 6 -11 5 3 7 9 4 14 -3 4 2 13 9 19
11 9 17 7 30 -10 8 -12 13 -26 10 -30 -2 -4 1 -11 7 -15 8 -4 9 -3 5 4 -7 12
8 17 29 12 6 -2 18 -2 28 -2 11 0 15 -4 11 -11 -4 -7 -4 -9 1 -5 4 4 16 3 26
-2 15 -9 17 -6 13 18 -2 15 -1 23 3 17 8 -10 20 -14 53 -19 8 -2 15 -15 16
-30 0 -15 6 -32 13 -39 10 -9 11 -8 5 6 -3 10 -3 17 2 15 5 -2 9 2 9 7 0 6 -3
9 -7 7 -5 -1 -8 2 -8 8 0 15 19 12 36 -5 19 -18 38 -20 28 -2 -4 6 2 4 13 -6
12 -10 30 -20 40 -22 10 -2 18 -4 18 -5 0 -2 37 -11 52 -12 7 -1 10 -5 7 -10
-4 -5 2 -8 11 -6 10 2 20 -3 23 -10 6 -18 -29 -12 -46 8 -12 13 -13 13 -6 0 7
-12 3 -12 -18 2 -22 14 -27 15 -32 3 -3 -9 0 -12 10 -8 7 3 14 0 14 -7 0 -6 5
-8 10 -5 6 3 10 1 10 -5 0 -6 5 -8 10 -5 6 3 11 1 11 -4 3 -26 4 -30 11 -36 4
-4 5 4 3 17 -4 20 -1 24 15 23 20 -1 41 -15 23 -15 -5 0 -10 -6 -10 -14 0 -8
6 -12 14 -9 7 3 10 9 7 14 -3 5 1 9 8 9 8 0 6 5 -5 11 -9 5 -17 15 -17 22 0 7
4 6 10 -3 5 -8 12 -11 16 -7 4 4 14 1 23 -7 16 -15 20 -16 46 -16 8 0 15 -9
15 -21 0 -11 -5 -17 -10 -14 -6 4 -7 11 -4 17 4 7 2 8 -5 4 -6 -4 -9 -11 -6
-16 3 -4 2 -10 -2 -13 -5 -2 -2 -2 5 -1 6 2 12 -2 12 -9 1 -7 6 -2 13 11 7 12
16 19 20 16 4 -4 7 -1 7 7 0 12 2 12 9 0 9 -13 26 -20 58 -23 7 -1 9 -6 6 -11
-4 -6 1 -8 11 -4 11 5 15 3 10 -5 -5 -8 -2 -9 11 -5 9 4 24 2 33 -5 8 -7 18
-12 21 -10 3 2 7 -2 9 -10 2 -9 1 -9 -5 -2 -4 6 -16 10 -26 8 -10 -1 -15 2
-11 9 5 9 4 9 -6 0 -9 -9 -19 -7 -43 7 -17 11 -35 16 -40 13 -6 -3 -7 -2 -4 4
3 5 0 10 -8 10 -8 0 -15 -4 -15 -9 0 -4 -5 -8 -11 -8 -8 0 -7 6 2 18 13 15 12
16 -3 3 -23 -18 -14 -30 19 -27 30 3 83 -20 83 -37 0 -8 3 -7 9 2 6 9 11 10
15 3 4 -6 14 -8 23 -5 12 5 14 3 8 -8 -7 -12 -6 -12 7 -1 11 9 18 10 23 2 3
-5 1 -10 -4 -10 -14 0 -14 -27 -1 -35 6 -4 7 1 3 11 -4 11 -3 15 5 10 6 -3 13
-2 17 4 4 6 11 7 17 4 6 -4 5 -10 -3 -15 -10 -6 -10 -9 -2 -9 19 0 24 17 8 30
-8 7 -15 9 -15 5 0 -4 -7 -2 -15 5 -8 7 -15 18 -15 24 0 6 4 5 9 -3 5 -8 16
-11 25 -8 9 4 15 1 13 -6 -1 -7 7 -13 18 -13 11 -1 23 -3 28 -4 4 -1 13 -3 19
-4 7 0 14 -9 16 -20 3 -11 0 -16 -7 -11 -6 3 -8 11 -5 17 4 7 2 8 -5 4 -8 -5
-9 -12 -2 -19 5 -7 9 -15 8 -19 -1 -3 2 -10 7 -15 5 -4 6 -3 2 4 -3 6 -2 14 3
17 5 3 11 -4 14 -16 6 -21 7 -21 25 -5 10 9 22 14 25 10 4 -3 7 -1 7 5 0 6 -9
10 -19 9 -11 0 -18 -4 -15 -8 2 -4 0 -10 -5 -13 -11 -7 -21 28 -11 44 5 8 9 7
13 -4 4 -9 13 -13 22 -10 8 4 17 -1 21 -10 3 -9 10 -13 15 -10 5 3 9 0 9 -6 0
-7 -7 -10 -14 -7 -10 4 -13 1 -10 -8 5 -11 10 -12 24 -3 10 7 16 17 12 23 -3
5 1 4 10 -2 8 -7 17 -11 20 -8 3 3 11 -1 17 -9 7 -8 18 -13 25 -10 8 3 16 -2
20 -11 4 -10 2 -14 -6 -9 -7 5 -8 3 -2 -7 5 -8 9 -17 9 -21 0 -5 5 -7 10 -5 6
1 9 6 7 10 -1 5 3 7 10 4 7 -2 12 -13 10 -23 -2 -16 -1 -17 7 -4 10 13 11 13
12 0 1 -8 1 -18 0 -22 0 -5 4 -8 10 -8 7 0 8 7 4 18 -4 9 -8 22 -8 29 0 7 -5
9 -10 6 -6 -3 -7 -1 -3 5 4 6 -3 9 -18 8 -17 -2 -23 1 -19 10 3 8 10 11 17 7
6 -4 15 -8 21 -8 5 0 15 -11 22 -25 11 -22 17 -21 14 2 0 3 7 5 17 3 9 -1 16
-8 15 -14 -2 -6 7 -9 20 -7 21 3 57 -12 57 -25 0 -3 -7 -6 -15 -6 -8 0 -11 5
-8 10 4 6 1 7 -7 2 -9 -6 -11 -4 -5 5 6 9 4 11 -4 6 -7 -5 -10 -11 -7 -14 3
-3 1 -11 -5 -19 -9 -9 -8 -13 0 -13 6 0 11 4 11 9 0 5 7 8 16 7 17 -3 35 -26
28 -37 -2 -4 -1 -10 4 -13 4 -2 8 8 7 24 0 15 -3 26 -7 24 -4 -3 -5 2 -1 11 5
13 7 14 14 3 5 -7 9 -9 9 -4 0 5 7 3 15 -4 8 -7 15 -9 15 -5 0 4 7 2 15 -5 8
-7 15 -9 15 -5 0 4 6 2 13 -4 8 -6 16 -9 19 -6 2 3 5 -1 5 -8 0 -8 -6 -14 -13
-14 -7 0 -10 5 -7 11 3 6 3 8 -2 4 -4 -4 -15 -2 -24 4 -9 7 -13 8 -9 4 4 -5 3
-15 -3 -23 -9 -9 -8 -13 0 -13 6 0 11 5 11 11 0 5 5 7 10 4 6 -4 7 -12 3 -18
-11 -18 -12 -38 -2 -31 5 3 7 9 4 14 -3 4 2 13 10 20 12 10 16 8 24 -11 7 -18
10 -19 10 -6 1 9 5 17 10 17 6 0 8 -8 6 -18 -2 -11 3 -19 10 -19 15 0 29 26
20 35 -3 3 -5 0 -5 -6 0 -7 -5 -12 -10 -12 -6 0 -9 6 -8 13 2 6 -5 11 -14 11
-10 -1 -14 4 -11 12 3 8 10 11 17 7 6 -4 14 -8 19 -9 4 -1 8 -2 10 -4 1 -1 11
-3 21 -5 10 -2 22 -7 25 -12 3 -5 13 -8 21 -8 8 1 25 -5 37 -13 12 -8 27 -11
32 -8 5 4 13 1 17 -6 4 -7 4 -10 -1 -6 -4 4 -17 3 -28 -3 -14 -8 -18 -8 -13 0
4 6 3 11 -2 11 -5 0 -14 -12 -21 -27 -10 -26 -10 -27 4 -9 8 11 15 17 15 14 0
-3 18 -2 40 2 25 5 37 4 33 -2 -3 -6 3 -7 17 -3 19 6 22 4 16 -10 -5 -15 -4
-16 8 -6 10 8 16 9 21 1 3 -6 10 -8 15 -5 5 3 11 1 15 -5 4 -6 10 -8 15 -5 4
3 11 -2 14 -11 5 -12 10 -14 19 -5 10 8 19 7 32 -3 11 -8 25 -12 31 -9 7 2 15
0 18 -6 9 -14 -14 -25 -26 -13 -6 6 -18 8 -27 5 -13 -4 -14 -3 -1 5 11 8 7 10
-15 8 -35 -2 -55 -13 -55 -29 0 -6 7 -2 16 9 15 19 16 19 10 -1 -6 -19 -5 -19
8 -2 10 12 16 15 21 7 4 -6 14 -9 22 -6 11 4 13 0 9 -17 -3 -12 -3 -16 0 -9 3
6 15 12 25 12 11 0 18 -4 15 -8 -2 -4 4 -9 15 -9 10 -1 19 3 19 8 0 6 5 7 10
4 8 -5 7 -11 -1 -21 -7 -9 -8 -14 -1 -14 6 0 13 6 15 13 4 9 8 8 17 -3 10 -13
11 -12 6 3 -4 12 -2 17 6 14 7 -2 12 -13 12 -25 -1 -12 3 -19 7 -16 5 3 7 10
4 15 -4 5 0 9 7 9 10 0 10 2 -1 9 -8 5 -9 11 -3 15 6 3 13 2 17 -4 3 -5 12
-10 18 -10 7 0 6 4 -3 10 -10 6 -5 9 20 8 19 -1 36 4 38 10 3 9 9 9 23 2 10
-6 19 -7 19 -3 0 4 7 -1 15 -11 8 -11 15 -15 15 -9 0 6 -7 16 -15 23 -8 7 -15
16 -15 21 0 11 23 7 32 -6 5 -6 12 -5 20 4 8 9 9 11 1 7 -6 -3 -14 -2 -18 4
-3 5 -2 10 2 10 11 0 10 51 -2 70 -7 13 -6 13 7 2 8 -7 24 -10 34 -6 12 3 10
0 -5 -9 -20 -12 -21 -15 -7 -20 9 -4 16 -2 16 3 0 6 7 10 15 10 8 0 15 5 15
11 0 6 9 8 22 3 21 -6 22 -6 8 12 -14 17 -13 18 1 6 9 -7 23 -10 32 -6 8 3 18
0 23 -7 4 -7 3 -10 -4 -6 -5 4 -18 4 -28 0 -15 -6 -15 -7 5 -15 13 -5 19 -12
15 -19 -4 -8 -3 -9 5 -5 6 4 9 11 6 16 -3 5 -1 12 5 15 8 5 6 14 -4 29 -12 19
-12 23 -1 23 8 0 12 -4 9 -9 -3 -4 -1 -8 5 -8 5 0 11 6 14 13 3 6 4 2 4 -10
-1 -12 -4 -20 -7 -18 -3 2 -6 -9 -6 -23 -1 -15 1 -22 3 -15 2 7 10 11 16 9 7
-1 9 -1 5 1 -14 8 -8 25 6 20 7 -3 19 0 26 6 10 10 12 8 6 -8 -5 -18 -4 -17
12 3 14 18 20 20 30 10 9 -9 12 -9 12 1 0 11 3 11 18 0 15 -11 15 -11 4 1 -7
8 -20 15 -30 15 -9 0 -16 6 -14 13 1 6 -3 12 -9 12 -6 0 -9 -7 -5 -15 3 -8 2
-14 -2 -14 -4 1 -9 0 -12 -1 -19 -7 -39 -7 -34 1 3 5 12 9 20 9 8 0 13 4 10 9
-8 12 24 23 38 13 21 -17 43 -20 43 -7 0 7 -7 12 -15 11 -8 0 -17 6 -19 14 -4
12 -3 13 5 1 5 -7 15 -10 21 -6 9 5 7 11 -6 22 -17 13 -16 13 5 3 12 -6 20
-15 17 -21 -4 -5 -2 -9 3 -9 17 0 22 13 10 27 -6 7 -8 16 -4 20 3 3 6 1 6 -5
0 -6 6 -9 14 -6 8 3 14 11 12 17 -1 7 -1 9 1 4 3 -4 10 -4 15 -1 6 4 8 2 4 -4
-3 -6 3 -17 15 -26 20 -13 21 -17 8 -33 -13 -16 -12 -17 3 -5 16 13 22 56 7
46 -4 -2 -11 1 -15 8 -4 7 -4 10 1 6 5 -5 14 1 21 11 13 18 59 38 48 20 -3 -5
-13 -9 -22 -9 -12 0 -13 -3 -4 -12 16 -16 45 9 39 34 -4 15 -2 16 16 6 24 -13
28 -15 55 -17 16 -2 16 -2 -1 -12 -12 -7 -22 -7 -30 0 -8 6 -18 6 -27 1 -11
-7 -12 -10 -2 -10 7 0 10 -5 6 -11 -5 -8 -8 -8 -14 0 -5 9 -10 7 -20 -4 -11
-13 -10 -14 6 -8 17 6 18 5 4 -13 -14 -18 -14 -18 6 -1 23 19 35 14 27 -11 -4
-14 -3 -15 5 -2 7 9 8 18 1 26 -7 8 -6 14 1 19 5 3 10 1 10 -4 0 -6 6 -10 13
-9 6 2 11 -3 9 -10 -1 -8 2 -11 8 -7 8 5 8 11 0 20 -8 9 -6 14 6 19 23 9 26 8
18 -6 -4 -8 -3 -10 2 -5 5 5 9 12 9 15 0 14 16 32 28 32 8 0 8 -3 -1 -12 -15
-15 -16 -28 -2 -28 6 0 9 5 8 12 -2 7 2 12 9 13 6 0 15 3 19 8 10 9 27 9 20
-1 -2 -4 5 -9 16 -9 20 -2 20 -1 -2 14 -29 21 -60 51 -60 59 0 4 7 1 16 -6 13
-11 16 -10 21 8 3 12 10 22 15 22 6 0 3 -11 -5 -24 -16 -23 -15 -25 11 -42 20
-13 24 -14 15 -2 -7 8 -9 19 -5 23 4 5 1 5 -6 0 -12 -6 -12 -3 -1 16 7 15 14
19 17 11 2 -6 8 -10 13 -6 15 9 10 22 -12 29 -11 4 -18 9 -16 12 3 2 15 -1 27
-7 12 -6 35 -13 52 -15 26 -4 28 -2 17 11 -7 8 -17 13 -24 10 -6 -2 -12 2 -12
10 0 12 5 11 25 -2 24 -16 25 -16 20 4 -4 14 -2 19 8 15 7 -2 10 -12 7 -20 -4
-10 -2 -14 5 -9 6 3 13 2 17 -3 3 -6 -3 -8 -14 -6 -13 2 -18 -1 -15 -9 6 -17
-13 -25 -49 -21 -15 2 -29 -1 -33 -6 -3 -5 -10 -6 -16 -3 -5 4 -4 -4 2 -17 17
-32 17 -32 24 -14 3 9 2 13 -4 10 -6 -3 -10 -2 -10 3 0 5 9 12 19 15 14 3 18
1 14 -9 -3 -8 0 -14 7 -14 6 0 8 5 5 10 -5 9 23 15 48 11 4 0 6 2 6 6 -5 30
34 42 54 18 5 -6 6 -2 3 8 -4 13 -1 17 12 15 9 -2 21 -7 25 -13 5 -6 7 -3 3 7
-5 18 7 31 36 35 12 2 16 -2 12 -15 -5 -14 -4 -14 4 -2 6 8 9 17 6 21 -5 9 22
20 30 12 9 -9 7 -25 -2 -19 -5 3 -9 -2 -9 -11 0 -13 4 -12 17 5 10 12 20 19
23 16 3 -3 4 1 3 10 -2 14 -7 19 -18 15 -2 0 -14 -2 -28 -5 -17 -3 -21 -1 -11
5 8 5 9 11 3 15 -13 8 -26 -10 -17 -24 3 -5 1 -10 -4 -10 -16 0 -13 37 3 43 7
3 19 0 25 -6 10 -9 11 -5 6 18 l-6 30 15 -30 c8 -16 15 -26 15 -22 1 4 10 3
20 -3 13 -6 18 -18 16 -31 -3 -12 -1 -18 3 -15 4 4 7 13 7 19 0 7 10 11 22 11
14 -1 20 3 16 10 -4 6 -8 16 -9 21 -1 6 -4 17 -6 25 -3 8 -3 11 0 7 2 -4 10
-3 18 4 12 10 12 13 -2 24 -14 9 -14 14 -4 20 8 5 11 4 7 -2 -4 -6 0 -13 8
-17 9 -3 12 -12 9 -23 -4 -13 0 -11 14 6 11 14 19 30 18 35 -2 6 -1 8 1 3 3
-4 9 -5 14 -1 5 3 12 -2 15 -11 5 -12 9 -13 20 -4 8 7 17 9 20 6 4 -3 15 3 27
14 22 20 36 24 38 12 0 -5 2 -16 4 -26 2 -11 0 -16 -3 -12 -4 4 -8 11 -8 16
-1 5 -2 12 -3 16 0 4 -15 -9 -32 -28 -16 -19 -27 -26 -24 -16 4 9 3 17 -2 17
-5 0 -10 -6 -10 -12 0 -7 -4 -22 -9 -33 -8 -19 -7 -19 10 -2 10 9 22 14 28 11
7 -5 8 -2 3 6 -6 10 -4 12 8 7 9 -3 19 -2 22 3 6 10 24 8 45 -5 13 -7 13 -6 2
7 -11 14 -9 19 10 32 20 15 21 18 9 39 -11 17 -11 19 0 10 17 -17 37 -17 21
-1 -7 7 -12 17 -12 23 0 5 5 2 11 -7 11 -19 39 -25 39 -8 0 6 -7 10 -15 10 -8
0 -15 4 -15 10 0 15 30 -1 41 -22 8 -15 8 -19 0 -14 -7 5 -9 1 -5 -8 3 -9 2
-16 -4 -16 -6 0 -12 5 -14 12 -2 6 -10 8 -16 4 -24 -15 -11 -23 33 -22 25 0
45 5 45 9 0 5 -7 7 -15 3 -8 -3 -15 -1 -15 4 0 16 19 21 40 10 16 -8 18 -8 14
4 -4 11 0 14 15 11 13 -2 22 3 26 15 7 22 24 22 40 2 8 -10 11 -6 13 15 1 15
-2 23 -6 18 -8 -11 -46 -14 -56 -4 -4 3 0 12 9 19 8 7 15 9 15 5 0 -4 8 -1 18
6 15 13 16 12 3 -3 -15 -20 -2 -25 17 -6 9 9 15 9 25 -1 10 -10 9 -11 -3 -8
-8 2 -12 2 -7 0 4 -3 5 -8 2 -13 -3 -5 3 -7 12 -6 10 2 21 -2 25 -8 6 -8 8 -8
8 1 0 6 -4 15 -10 18 -15 9 -12 25 6 25 8 0 12 -4 9 -10 -3 -5 -1 -10 5 -10 6
0 8 -5 4 -12 -4 -7 -3 -8 5 -4 6 4 8 12 5 18 -4 6 -8 26 -9 44 -1 23 2 31 12
27 8 -3 11 -8 9 -11 -3 -3 0 -12 7 -20 10 -13 9 -14 -2 -7 -10 6 -12 4 -6 -5
6 -9 4 -11 -6 -5 -12 8 -12 6 0 -8 7 -9 16 -17 19 -17 3 0 2 3 -1 7 -4 3 -2
12 5 20 6 7 8 16 5 20 -8 7 11 43 23 43 5 0 14 -10 21 -21 9 -17 8 -20 -2 -14
-7 5 -10 4 -5 -3 3 -6 2 -13 -4 -17 -5 -3 -10 -1 -10 6 0 7 -2 10 -5 7 -3 -3
-3 -13 1 -22 5 -14 9 -13 25 8 11 14 28 25 39 25 11 1 29 1 40 2 11 0 20 5 20
11 0 5 7 8 14 5 10 -4 13 -1 9 9 -3 8 -8 12 -11 10 -3 -3 -11 -1 -19 5 -9 9
-13 8 -13 0 0 -6 5 -11 11 -11 5 0 7 -5 4 -10 -4 -6 -12 -5 -21 5 -17 17 -19
30 -4 30 6 0 15 7 21 15 9 13 10 13 6 -2 -9 -25 3 -29 26 -7 11 10 26 19 31
19 6 0 4 -5 -4 -10 -13 -8 -13 -10 1 -10 23 0 30 11 18 27 -8 8 -8 13 -1 13 6
0 12 -6 15 -12 2 -7 8 -10 12 -6 4 4 3 13 -3 21 -12 14 -4 31 16 35 6 1 11 -4
10 -10 -2 -8 6 -12 22 -10 22 2 23 1 7 -9 -14 -8 -22 -8 -30 0 -21 21 -27 11
-10 -16 9 -16 13 -25 9 -21 -5 4 -18 3 -28 -3 -22 -12 -12 -31 18 -35 12 -2
14 0 5 9 -14 14 -15 30 -1 22 6 -3 13 1 16 9 3 9 10 16 16 16 5 0 6 -4 3 -10
-3 -5 -1 -10 5 -10 7 0 10 6 7 14 -3 8 1 17 10 20 12 5 13 9 3 21 -7 8 -8 15
-4 15 5 0 15 -9 22 -20 8 -14 9 -19 1 -18 -6 2 -13 -5 -14 -15 -3 -17 -2 -17
14 -3 20 18 41 22 23 4 -15 -15 -15 -28 0 -28 6 0 8 3 5 7 -4 3 -2 12 4 20 6
7 8 13 3 13 -5 0 -2 5 6 10 11 7 20 4 33 -13 l18 -22 -11 23 c-9 18 -8 22 5
22 8 0 15 4 15 8 0 5 7 9 15 9 8 0 15 -4 15 -9 0 -4 -4 -8 -9 -8 -6 0 -9 -9
-8 -20 1 -17 11 -19 12 -2 1 4 6 16 12 28 12 21 37 25 61 10 8 -5 11 -3 10 6
-2 8 7 13 24 12 15 -1 25 3 22 8 -3 4 -10 6 -15 3 -5 -4 -9 -1 -9 4 0 6 7 11
15 11 8 0 15 5 15 10 0 7 -6 7 -18 1 -11 -6 -23 -6 -28 -1 -5 5 -17 3 -28 -6
-14 -10 -16 -14 -5 -14 11 0 12 -2 1 -9 -8 -5 -27 -7 -43 -6 -18 2 -26 -1 -22
-8 3 -5 1 -7 -5 -3 -6 3 -14 1 -17 -5 -4 -5 -14 -8 -22 -5 -8 3 -12 2 -9 -2 3
-5 0 -9 -7 -9 -7 0 -21 -4 -31 -8 -16 -7 -18 -5 -14 13 4 16 1 22 -16 25 -13
3 -9 4 9 4 17 -1 36 2 42 6 7 4 16 0 22 -10 5 -10 13 -15 16 -11 10 10 -20 49
-30 40 -5 -4 -5 -1 0 7 7 12 10 11 20 -2 7 -9 16 -13 20 -9 5 4 5 1 1 -5 -4
-7 -2 -13 3 -13 6 0 11 6 11 13 0 9 2 9 9 -1 6 -10 10 -8 14 9 5 17 9 20 19
11 15 -12 52 9 40 24 -4 5 3 0 16 -10 15 -13 22 -15 22 -6 0 7 -8 19 -17 27
-16 13 -16 13 4 4 12 -6 24 -16 26 -23 4 -8 6 -7 6 4 1 9 6 20 12 24 7 4 9 0
5 -14 -4 -12 -2 -23 5 -28 8 -4 9 -3 5 4 -4 7 -2 12 4 12 6 0 8 6 4 13 -4 7
-3 9 2 4 5 -5 9 -180 10 -403 l1 -395 -26 -14 c-73 -38 -131 -127 -135 -208
-4 -69 11 -113 53 -167 20 -24 35 -48 33 -53 -1 -5 2 -6 7 -3 5 4 16 0 23 -8
8 -7 24 -17 36 -20 23 -8 31 -36 10 -36 -6 0 -8 -3 -5 -6 4 -4 -26 -68 -65
-143 -40 -75 -90 -171 -113 -213 -26 -51 -37 -80 -30 -87 6 -5 39 -11 75 -13
36 -1 68 -7 73 -13 4 -6 11 -5 17 5 6 10 10 11 10 3 0 -14 21 -13 31 1 4 5 10
-1 14 -13 3 -11 11 -21 16 -21 5 0 9 -4 9 -10 0 -17 -18 -11 -24 8 -4 10 -13
19 -21 19 -19 0 -19 -7 1 -22 15 -11 15 -12 0 -12 -8 0 -18 9 -22 19 -4 15 -9
16 -26 7 -12 -6 -18 -7 -14 -1 3 5 -1 13 -9 16 -13 5 -14 2 -4 -15 7 -14 7
-19 0 -15 -5 4 -14 -2 -20 -12 -7 -14 -6 -19 4 -19 7 0 11 7 8 15 -5 12 -2 12
15 3 11 -6 29 -8 39 -4 15 5 16 3 6 -8 -7 -7 -13 -18 -13 -24 0 -5 5 -3 10 5
5 8 14 16 20 16 5 1 11 2 13 4 10 8 49 4 55 -6 5 -9 12 -10 22 -4 13 8 12 10
-3 10 -11 0 -15 4 -11 12 4 6 3 8 -2 5 -6 -3 -11 4 -11 15 -2 19 -1 19 11 3 9
-13 15 -15 20 -7 4 7 2 12 -5 12 -7 0 -9 3 -6 6 4 4 13 1 22 -6 17 -14 21 -1
5 18 -5 7 -3 6 5 -1 10 -8 13 -20 9 -31 -5 -12 -9 -14 -14 -6 -5 9 -9 9 -14 1
-7 -11 -3 -13 32 -14 9 -1 20 -6 24 -12 5 -6 11 -6 19 2 6 6 18 9 25 6 9 -3
14 1 14 12 0 9 5 13 10 10 6 -4 8 -11 4 -16 -3 -6 3 -17 15 -25 12 -9 18 -20
15 -26 -5 -7 -2 -8 5 -4 7 5 10 11 7 14 -10 10 15 31 30 25 11 -4 12 -9 4 -18
-8 -10 -8 -15 1 -21 7 -4 9 -3 6 3 -4 6 3 19 15 29 17 15 20 16 16 3 -4 -9 -2
-22 3 -30 8 -12 10 -12 8 1 -3 28 1 38 14 36 13 -3 47 -16 61 -24 5 -3 6 0 2
6 -4 7 -14 12 -23 12 -9 0 -13 3 -9 7 18 18 72 -10 59 -30 -4 -6 -1 -7 6 -2 9
5 10 10 2 18 -15 15 -14 32 2 19 20 -17 23 -17 40 -4 10 9 17 10 22 2 3 -5 1
-10 -4 -10 -14 0 -14 -27 -1 -35 5 -3 7 0 4 8 -3 8 6 21 20 31 25 16 34 11 19
-10 -5 -5 -1 -2 8 8 15 16 18 16 23 2 3 -9 3 -21 -1 -26 -3 -7 -1 -8 6 -4 7 5
9 16 5 29 -6 19 -5 20 10 8 10 -9 16 -10 16 -2 0 6 -4 11 -10 11 -5 0 -10 5
-10 10 0 6 10 8 24 4 13 -3 27 -1 30 4 4 6 -2 8 -14 5 -11 -3 -20 0 -20 6 0 6
8 11 17 11 15 0 14 2 -3 15 -16 13 -17 16 -4 25 8 5 11 10 5 10 -20 0 -32 -15
-30 -37 1 -12 -3 -21 -9 -20 -6 1 -10 -7 -8 -18 2 -16 1 -17 -7 -5 -10 13 -11
13 -11 0 0 -8 -7 -2 -15 14 -19 36 -19 46 -1 20 13 -16 17 -17 28 -5 8 8 8 11
1 7 -6 -3 -15 -2 -18 4 -4 6 -3 10 2 9 22 -4 29 3 29 29 0 15 -4 32 -8 37 -23
28 -56 85 -50 85 4 0 0 5 -8 10 -8 5 -10 10 -4 10 16 0 35 -25 27 -34 -4 -4 0
-4 8 -1 9 3 16 12 16 19 0 8 -5 12 -11 10 -13 -5 -68 40 -60 49 10 10 34 -4
27 -16 -3 -6 -1 -7 5 -3 16 10 16 11 -14 31 -15 9 -23 12 -20 6 4 -6 2 -11 -3
-11 -16 0 -13 16 4 30 8 7 15 17 15 22 0 5 -8 2 -17 -7 -16 -16 -17 -16 -30 0
-7 10 -10 22 -7 26 3 5 0 9 -7 9 -8 0 -8 4 1 15 7 8 17 12 23 8 6 -4 7 -1 2 6
-5 9 -10 10 -18 2 -18 -18 -31 -13 -16 6 8 9 9 14 3 10 -6 -3 -21 4 -33 17
-15 16 -19 26 -11 31 6 4 8 16 4 27 -5 16 -3 20 9 15 9 -3 21 2 29 10 11 15
11 16 -5 10 -11 -4 -16 -3 -12 3 3 6 -1 10 -9 10 -8 0 -18 5 -21 11 -4 5 9 3
29 -5 20 -8 38 -11 41 -7 2 5 -3 11 -13 13 -10 3 -19 12 -19 21 0 9 4 14 9 11
5 -3 6 -10 3 -15 -4 -5 -2 -9 3 -9 10 0 28 19 34 35 3 11 18 8 33 -6 7 -7 4
-15 -9 -25 -11 -8 -14 -14 -7 -14 7 0 9 -5 5 -12 -4 -7 -3 -8 5 -4 6 4 9 12 6
17 -4 5 1 12 10 15 14 6 14 9 1 29 -14 21 -13 22 10 17 16 -3 24 0 24 9 0 12
2 12 9 1 7 -11 9 -10 14 3 4 9 3 13 -3 10 -6 -3 -10 -2 -10 4 0 5 5 11 12 13
8 3 6 7 -5 11 -9 3 -16 3 -16 -1 3 -21 -3 -31 -16 -26 -8 4 -15 10 -15 15 0 4
8 5 18 2 15 -6 15 -4 4 9 -12 15 -10 16 16 12 21 -4 31 0 36 12 5 14 4 15 -8
5 -14 -12 -46 -5 -46 10 0 5 -8 9 -17 9 -14 0 -12 4 7 17 28 20 40 23 55 12 6
-4 16 -4 23 0 9 5 6 13 -10 26 -13 11 -17 13 -10 5 20 -23 14 -35 -8 -15 -25
22 -26 35 -2 35 16 1 16 1 -1 11 -9 6 -15 14 -12 19 3 5 -8 19 -24 31 -28 20
-29 23 -13 38 10 9 13 13 8 9 -6 -5 -17 -8 -25 -8 -14 0 -14 1 -1 10 13 8 13
10 -2 10 -10 0 -20 10 -24 25 -3 14 -9 24 -13 22 -3 -1 -21 12 -38 31 -29 29
-30 32 -10 27 12 -3 18 -3 12 2 -13 11 -19 47 -7 39 14 -8 9 21 -6 36 -9 9
-11 6 -7 -11 2 -12 0 -19 -6 -16 -12 8 -7 -18 6 -27 5 -4 -3 -6 -18 -4 -15 1
-30 6 -35 11 -4 4 -2 5 4 2 7 -4 14 -1 16 6 7 17 -2 38 -13 32 -5 -4 -6 1 -2
11 5 14 8 13 18 -6 8 -15 15 -19 19 -11 4 6 -5 23 -19 37 -15 15 -20 24 -11
21 20 -8 21 7 1 27 -8 8 -11 17 -6 21 5 3 13 -4 16 -15 6 -18 9 -19 23 -8 15
11 15 11 6 -2 -13 -18 -14 -50 -2 -50 5 0 6 10 2 22 -6 21 -6 22 12 8 18 -14
18 -14 4 4 -8 11 -14 21 -12 23 1 1 -1 3 -4 2 -3 0 -15 12 -27 27 -22 28 -31
54 -19 54 9 0 37 -43 34 -52 -1 -5 3 -8 8 -8 15 0 12 11 -10 48 -23 37 -24 42
-9 42 5 0 8 -4 5 -9 -6 -10 13 -29 29 -29 5 0 11 -6 14 -13 2 -7 -1 -9 -9 -4
-9 6 -11 4 -5 -4 5 -9 10 -10 18 -2 7 7 7 14 -1 24 -7 8 -9 16 -6 20 3 3 -4 8
-15 12 -26 8 -43 38 -34 61 4 11 3 15 -5 10 -6 -3 -14 -1 -18 6 -4 7 -4 10 1
6 10 -9 35 10 35 25 0 7 -4 7 -12 -1 -7 -7 -17 -12 -22 -12 -6 0 0 7 12 16 21
15 21 16 5 47 -20 39 -24 57 -12 57 14 0 11 28 -3 33 -10 4 -10 6 0 6 18 1 25
-24 13 -48 -13 -23 -5 -30 37 -37 18 -3 22 -1 14 4 -8 5 -13 12 -13 16 1 3 -2
5 -6 4 -5 -2 -7 -7 -5 -11 1 -5 -2 -6 -7 -2 -6 3 -7 15 -2 28 10 25 -19 94
-32 80 -5 -4 -5 1 -1 11 7 17 8 17 19 -4 8 -15 15 -19 19 -11 4 6 -5 23 -19
37 -15 15 -20 24 -11 21 20 -8 21 7 1 27 -8 8 -11 17 -6 21 5 3 13 -4 16 -15
6 -18 9 -19 23 -8 15 11 15 11 6 -2 -13 -18 -14 -50 -2 -50 5 0 6 10 2 22 -6
21 -6 22 12 8 17 -13 18 -13 7 0 -6 8 -12 18 -12 23 -1 4 -3 7 -6 7 -9 -1 -54
55 -49 60 3 2 9 -2 14 -10 7 -10 10 -11 10 -2 0 6 4 12 9 12 6 0 8 -9 6 -20
-2 -11 1 -20 6 -20 6 0 9 6 6 13 -2 6 0 20 4 29 6 10 5 19 -1 23 -6 4 -4 12 5
22 10 9 12 19 7 27 -12 15 -11 46 1 46 6 0 7 3 4 7 -4 3 -1 13 6 22 10 14 10
14 -4 4 -11 -9 -19 -9 -26 -2 -8 8 -13 8 -17 0 -4 -6 0 -11 8 -11 9 0 16 -5
16 -11 0 -5 -4 -8 -9 -4 -5 3 -13 0 -17 -6 -4 -7 -3 -9 4 -5 7 4 10 -1 7 -14
-2 -11 0 -20 4 -20 4 0 8 -7 8 -15 0 -8 -4 -12 -8 -9 -4 2 -6 -4 -4 -16 2 -11
-1 -22 -6 -26 -15 -9 -22 2 -13 18 5 7 10 22 11 33 2 15 -1 13 -13 -7 -17 -32
-21 -34 -21 -13 0 8 4 15 9 15 5 0 7 4 4 9 -3 5 1 12 10 15 13 5 14 9 4 21 -7
8 -16 13 -19 10 -4 -2 -8 2 -8 10 0 11 4 12 13 4 10 -8 12 -6 11 10 -1 12 -8
21 -17 21 -11 1 -10 4 5 12 11 6 25 18 30 25 9 12 11 10 11 -6 0 -11 -5 -17
-11 -14 -5 3 -4 0 3 -8 9 -10 15 -10 24 -1 9 9 9 12 0 12 -7 0 -12 4 -12 9 0
5 7 8 16 7 9 0 18 7 19 17 2 9 -1 15 -6 11 -5 -3 -7 -10 -4 -15 4 -5 2 -9 -4
-9 -5 0 -13 5 -16 11 -4 6 -13 8 -20 5 -7 -2 -21 2 -32 10 -10 9 -13 13 -7 10
7 -3 15 1 18 9 3 8 9 15 13 14 20 -3 34 2 28 11 -3 5 -12 7 -19 4 -8 -3 -17
-1 -21 5 -4 7 0 8 11 4 13 -5 15 -3 9 8 -6 11 -5 12 6 2 17 -17 34 -17 21 0
-8 9 -8 17 0 27 8 12 9 12 4 -2 -3 -12 5 -24 25 -39 17 -12 33 -18 36 -15 4 3
0 6 -7 6 -13 0 -5 14 8 16 18 2 42 17 42 26 0 5 -4 6 -10 3 -5 -3 -10 -1 -10
4 0 6 5 11 11 11 5 0 7 5 3 12 -4 6 -3 8 4 4 6 -3 16 2 22 11 11 17 11 17 6 0
-4 -12 -2 -17 6 -15 7 3 13 11 13 19 0 8 10 15 24 15 13 1 26 6 30 12 4 7 11
4 20 -9 7 -12 8 -18 2 -15 -5 4 -15 -3 -21 -14 -8 -14 -18 -19 -35 -16 -25 5
-43 -8 -26 -18 5 -4 12 -2 15 2 3 5 17 8 30 7 14 -2 25 0 25 3 -3 22 3 30 21
27 16 -3 25 5 37 30 9 19 21 35 26 35 5 0 3 8 -4 18 -7 9 -1 6 14 -7 31 -28
37 -25 42 18 3 26 0 34 -18 41 -14 5 -16 9 -7 9 9 1 21 -4 28 -11 7 -7 12 -8
12 -2 0 6 -5 15 -12 22 -9 9 -9 12 0 12 7 0 12 -5 12 -11 0 -5 5 -7 12 -3 8 5
6 11 -6 19 -15 11 -15 13 -1 19 9 3 13 2 10 -4 -3 -5 8 -16 24 -25 36 -18 41
-19 41 -3 0 6 -3 8 -6 5 -9 -9 -46 12 -39 23 3 5 -4 14 -15 20 -11 6 -20 18
-19 28 0 16 1 16 7 0 5 -13 11 -15 22 -8 23 15 36 12 16 -3 -16 -12 -16 -13 3
-13 11 0 17 4 15 8 -3 4 1 8 8 8 8 0 9 3 3 8 -14 10 -19 46 -6 37 6 -3 11 -1
11 4 0 6 -5 11 -11 11 -5 0 -8 4 -4 9 3 6 -3 15 -14 20 -23 13 -31 14 -30 4 3
-19 -2 -33 -12 -33 -6 0 -7 5 -2 13 11 17 12 66 1 73 -12 8 0 24 15 18 7 -2
18 5 25 17 8 12 9 18 4 15 -14 -8 -44 23 -36 36 4 6 2 8 -3 5 -6 -4 -40 22
-75 57 -55 55 -75 68 -163 102 -100 38 -105 40 -126 43 -5 0 -7 6 -3 13 4 6 3
8 -3 5 -10 -6 -70 10 -118 32 -29 13 -233 91 -275 104 -19 6 -38 15 -41 20 -3
5 -9 8 -13 8 -3 -1 -7 -1 -8 0 -2 0 -10 2 -18 4 -55 13 -168 60 -163 68 3 6 1
7 -6 3 -6 -4 -25 0 -43 8 -17 9 -39 16 -48 16 -10 0 -23 7 -30 15 -7 8 -16 13
-20 10 -4 -3 -25 3 -46 12 -22 9 -43 18 -49 19 -15 3 -227 83 -250 94 -11 5
-43 17 -72 26 -29 9 -57 22 -64 30 -6 8 -15 12 -19 9 -5 -3 -21 0 -37 6 -15 7
-32 13 -38 15 -20 5 -231 86 -263 100 -18 9 -43 17 -55 20 -12 2 -23 8 -25 14
-2 6 -8 8 -13 5 -5 -4 -23 0 -41 8 -18 8 -58 24 -88 35 -110 41 -225 84 -245
92 -25 10 -54 19 -60 20 -3 0 -18 6 -34 15 -16 8 -51 22 -78 31 -26 9 -59 21
-73 27 -29 12 -27 12 -62 21 -16 5 -28 12 -28 18 0 5 -4 6 -10 3 -5 -3 -10 -1
-10 5 0 6 -4 9 -9 5 -5 -3 -33 4 -63 16 -29 11 -80 30 -113 41 -33 11 -64 24
-70 29 -5 5 -15 9 -23 9 -8 0 -28 6 -45 14 -18 7 -59 24 -92 36 -33 12 -69 26
-80 31 -35 15 -119 25 -155 19z m3455 -1360 c-3 -5 4 -11 15 -15 11 -4 18 -10
15 -15 -10 -16 -33 1 -44 32 -9 26 -9 29 4 18 8 -7 13 -16 10 -20z m51 -147
c-2 -9 -8 -19 -14 -21 -14 -4 -15 0 -6 22 8 21 23 20 20 -1z m-16 -37 c0 -3
-4 -8 -10 -11 -5 -3 -10 -1 -10 4 0 6 5 11 10 11 6 0 10 -2 10 -4z m-105 -135
c-3 -6 -11 -11 -16 -11 -5 0 -4 6 3 14 14 16 24 13 13 -3z m32 -11 c-3 -10 0
-21 6 -23 7 -2 7 -6 1 -10 -5 -3 -16 3 -23 15 -7 11 -8 17 -2 13 6 -3 11 1 11
9 0 9 3 16 6 16 4 0 4 -9 1 -20z m-65 -52 c-6 -6 -7 0 -4 19 5 21 7 23 10 9 2
-10 0 -22 -6 -28z m-22 -14 c0 -8 4 -12 10 -9 6 4 7 -1 3 -11 -5 -14 -8 -13
-19 7 -16 29 -18 42 -4 34 6 -3 10 -13 10 -21z m-60 6 c0 -5 -2 -10 -4 -10 -3
0 -8 5 -11 10 -3 6 -1 10 4 10 6 0 11 -4 11 -10z m-90 -26 c0 -8 -19 -13 -24
-6 -3 5 1 9 9 9 8 0 15 -2 15 -3z m-37 -27 c-4 -7 1 -8 13 -3 14 5 16 4 8 -4
-6 -6 -18 -8 -27 -4 -21 8 -22 21 -2 21 8 0 11 -5 8 -10z m-6098 -17 c4 -6 10
-8 15 -5 4 3 7 -2 6 -10 -1 -9 -6 -14 -12 -13 -5 2 -8 6 -6 11 2 7 -14 11 -31
8 -5 -1 -6 3 -2 9 8 13 22 13 30 0z m5991 -18 c-17 -16 -18 -16 -5 5 7 12 15
20 18 17 3 -2 -3 -12 -13 -22z m84 -5 c0 8 9 11 23 9 21 -3 28 -21 8 -21 -5 0
-13 -3 -17 -7 -9 -9 -34 10 -34 26 0 6 5 4 10 -4 6 -10 10 -11 10 -3z m-80
-111 c0 -2 -7 -7 -16 -10 -8 -3 -12 -2 -9 4 6 10 25 14 25 6z m-450 -46 c0 -5
-5 -10 -11 -10 -5 0 -7 5 -4 10 3 6 8 10 11 10 2 0 4 -4 4 -10z m-5000 -20 c0
-5 -5 -10 -11 -10 -5 0 -7 5 -4 10 3 6 8 10 11 10 2 0 4 -4 4 -10z m4922 -8
c-7 -2 -10 -8 -7 -13 4 -5 -2 -6 -11 -2 -11 4 -13 8 -6 11 7 2 10 8 7 13 -4 5
2 6 11 2 11 -4 13 -8 6 -11z m-67 -22 c3 -6 -1 -7 -9 -4 -18 7 -21 14 -7 14 6
0 13 -4 16 -10z m115 -24 c0 -2 -6 -9 -13 -15 -10 -8 -14 -7 -14 4 0 8 6 15
14 15 7 0 13 -2 13 -4z m-4735 -55 c-3 -6 -11 -11 -17 -11 -6 0 -6 6 2 15 14
17 26 13 15 -4z m4376 -14 c-10 -9 -11 -8 -5 6 3 10 9 15 12 12 3 -3 0 -11 -7
-18z m-26 -17 c3 -5 2 -10 -4 -10 -5 0 -13 5 -16 10 -3 6 -2 10 4 10 5 0 13
-4 16 -10z m-4149 -35 c1 -8 -1 -15 -6 -15 -10 0 -20 26 -13 34 8 8 16 -1 19
-19z m44 1 c0 -2 -7 -6 -15 -10 -8 -3 -15 -1 -15 4 0 6 7 10 15 10 8 0 15 -2
15 -4z m4020 -9 c0 -5 -7 -6 -16 -3 -10 4 -14 1 -11 -6 2 -7 10 -14 18 -14 8
-1 20 -2 28 -3 8 0 12 -4 9 -7 -9 -8 -57 -12 -56 -5 3 15 -15 40 -25 34 -5 -3
-7 -2 -4 3 7 13 57 13 57 1z m-95 -25 c-3 -3 -11 0 -18 7 -9 10 -8 11 6 5 10
-3 15 -9 12 -12z m-3835 -2 c3 -1 8 -2 12 -2 3 1 11 -5 18 -13 6 -7 17 -12 25
-9 19 8 27 -12 10 -26 -10 -8 -15 -9 -15 -2 0 6 -10 9 -21 7 -14 -3 -28 4 -41
20 -11 14 -24 22 -30 19 -6 -4 -8 -2 -5 4 6 9 27 9 47 2z m3743 -41 c-8 -8
-13 -7 -18 2 -5 8 -4 10 3 5 7 -4 12 -2 12 5 0 7 3 9 7 6 4 -4 2 -12 -4 -18z
m-3640 -9 c3 -11 1 -20 -4 -20 -5 0 -9 9 -9 20 0 11 2 20 4 20 2 0 6 -9 9 -20z
m3564 -4 c-15 -7 -24 -15 -21 -19 4 -4 5 -7 1 -7 -18 0 -15 22 5 29 34 14 47
11 15 -3z m123 10 c0 -2 -7 -6 -15 -10 -8 -3 -15 -1 -15 4 0 6 7 10 15 10 8 0
15 -2 15 -4z m-208 -42 c-4 -24 -3 -25 16 -15 14 7 19 17 16 29 -5 14 -4 15 5
2 15 -21 14 -28 -9 -35 -11 -4 -18 -10 -15 -15 3 -5 1 -12 -5 -15 -6 -4 -10
-3 -9 2 1 4 -1 16 -5 26 -5 9 -6 24 -2 32 9 24 14 17 8 -11z m88 -25 c0 -5 -4
-9 -10 -9 -19 0 -25 -2 -37 -12 -9 -7 -13 -7 -13 1 0 10 14 15 34 12 5 -1 6 5
3 13 -4 10 -1 13 9 9 7 -3 14 -9 14 -14z m-195 -17 c-3 -3 2 -13 10 -22 14
-15 13 -18 -3 -33 -17 -15 -18 -15 -19 3 -1 11 3 20 8 20 6 0 7 5 4 10 -4 6
-10 8 -14 6 -4 -3 -8 1 -8 8 0 7 6 13 14 13 7 0 11 -3 8 -5z m-38 -18 c-3 -3
-12 -4 -19 -1 -8 3 -5 6 6 6 11 1 17 -2 13 -5z m-67 -24 c0 -5 -4 -10 -10 -10
-5 0 -10 5 -10 10 0 6 5 10 10 10 6 0 10 -4 10 -10z m40 6 c0 -2 -7 -7 -16
-10 -8 -3 -12 -2 -9 4 6 10 25 14 25 6z m-176 -51 c-4 -8 -11 -15 -16 -15 -6
0 -5 6 2 15 7 8 14 15 16 15 2 0 1 -7 -2 -15z m206 11 c0 -11 -19 -15 -25 -6
-3 5 1 10 9 10 9 0 16 -2 16 -4z m-250 -16 c0 -5 -5 -10 -11 -10 -5 0 -7 5 -4
10 3 6 8 10 11 10 2 0 4 -4 4 -10z m1680 1 c0 -6 -4 -12 -8 -15 -5 -3 -9 1 -9
9 0 8 4 15 9 15 4 0 8 -4 8 -9z m-1756 -29 c3 -5 -1 -9 -9 -9 -8 0 -12 4 -9 9
3 4 7 8 9 8 2 0 6 -4 9 -8z m122 -5 c13 -12 13 -35 0 -33 -21 3 -36 17 -30 28
5 7 1 9 -9 5 -9 -3 -19 -2 -21 2 -7 10 50 8 60 -2z m-166 -17 c0 -5 -8 -10
-17 -10 -15 0 -16 2 -3 10 19 12 20 12 20 0z m34 -40 c5 -8 6 -12 1 -7 -4 4
-19 -3 -32 -15 -15 -14 -23 -17 -23 -8 0 10 -5 9 -18 -4 -18 -15 -19 -15 -30
8 -13 29 -6 39 20 25 14 -8 24 -7 36 3 13 11 14 11 8 -1 -6 -9 -5 -12 5 -9 8
3 13 16 12 29 -2 14 0 18 4 9 3 -8 11 -22 17 -30z m-117 14 c-3 -3 -12 -4 -19
-1 -8 3 -5 6 6 6 11 1 17 -2 13 -5z m1878 -33 c3 -5 2 -12 -3 -15 -5 -3 -9 1
-9 9 0 17 3 19 12 6z m45 -41 c0 -5 -2 -10 -4 -10 -3 0 -8 5 -11 10 -3 6 -1
10 4 10 6 0 11 -4 11 -10z m-2177 -34 c8 5 8 2 0 -7 -19 -20 -16 -34 4 -18 14
12 16 12 9 0 -6 -9 -5 -12 4 -9 7 2 14 12 16 22 1 10 6 21 10 24 4 4 4 -1 0
-12 -4 -13 -2 -17 8 -13 8 3 19 0 25 -7 14 -17 1 -29 -16 -15 -10 9 -18 8 -32
-5 -18 -17 -21 -17 -45 -1 -14 10 -26 14 -26 9 0 -4 -5 -3 -12 4 -9 9 -9 15 1
25 10 10 11 9 6 -5 -5 -12 -2 -16 12 -14 11 2 17 11 16 22 -1 11 0 13 3 6 3
-6 11 -9 17 -6z m-112 -39 c-10 -9 -11 -8 -5 6 3 10 9 15 12 12 3 -3 0 -11 -7
-18z m-28 -9 c-2 -5 -11 -8 -19 -8 -9 0 -12 -5 -8 -12 4 -7 3 -9 -1 -5 -17 15
-12 32 10 32 13 0 21 -3 18 -7z m-110 -33 c-3 -9 -8 -14 -10 -11 -3 3 -2 9 2
15 9 16 15 13 8 -4z m-73 -25 c0 -5 -5 -10 -11 -10 -5 0 -7 5 -4 10 3 6 8 10
11 10 2 0 4 -4 4 -10z m23 -5 c-3 -9 -8 -14 -10 -11 -3 3 -2 9 2 15 9 16 15
13 8 -4z m-86 -20 c0 -8 -4 -15 -9 -15 -10 0 -11 14 -1 23 9 10 10 9 10 -8z
m-57 -37 c0 -4 -4 -8 -9 -8 -6 0 -12 4 -15 8 -3 5 1 9 9 9 8 0 15 -4 15 -9z
m-165 -48 c3 -6 -1 -7 -9 -4 -18 7 -21 14 -7 14 6 0 13 -4 16 -10z m-5 -35 c1
-5 7 1 15 15 l14 25 -4 -30 c-3 -33 -21 -35 -43 -4 -7 11 -18 16 -24 13 -7 -4
-8 -2 -4 4 8 13 46 -6 46 -23z m-119 -18 c-10 -9 -11 -8 -5 6 3 10 9 15 12 12
3 -3 0 -11 -7 -18z m72 16 c-7 -2 -19 -2 -25 0 -7 3 -2 5 12 5 14 0 19 -2 13
-5z m-53 -28 c-13 -16 -1 -21 16 -7 5 5 21 13 36 20 23 10 26 9 21 -5 -4 -10
-2 -14 4 -10 6 4 14 0 17 -8 4 -12 2 -14 -11 -6 -12 6 -25 4 -42 -8 -19 -12
-23 -12 -16 -2 6 11 4 13 -11 7 -10 -4 -26 -9 -34 -11 -8 -2 -16 -4 -17 -4
-10 -3 -18 2 -15 10 1 5 -2 9 -8 9 -5 0 -10 5 -10 11 0 6 5 7 13 2 22 -14 38
-12 50 7 6 11 13 17 16 15 2 -3 -2 -11 -9 -20z m-105 -4 c-3 -5 -1 -12 5 -16
5 -3 10 2 11 12 0 14 3 12 10 -6 11 -28 4 -40 -13 -23 -8 8 -15 8 -24 1 -19
-16 -27 7 -8 25 17 18 28 21 19 7z m3122 -103 c13 -21 14 -48 1 -48 -6 0 -3
-10 8 -22 10 -12 13 -18 6 -14 -8 5 -22 0 -35 -11 -14 -12 -18 -13 -9 -2 6 9
8 20 4 24 -4 5 -1 5 6 1 6 -4 12 -2 12 3 0 6 -6 11 -12 11 -9 0 -8 4 2 10 13
9 13 10 0 10 -12 0 -12 2 -1 9 9 6 10 11 2 15 -6 4 -11 11 -11 17 0 13 17 11
27 -3z m-31 -160 c5 -7 3 -8 -6 -3 -10 6 -12 4 -6 -11 5 -14 4 -16 -5 -7 -6 6
-8 16 -5 22 9 14 13 14 22 -1z m-6 -43 c0 -2 -6 -5 -13 -8 -8 -3 -14 1 -14 8
0 7 6 11 14 8 7 -3 13 -6 13 -8z m-45 -15 c-3 -5 -12 -10 -18 -10 -7 0 -6 4 3
10 19 12 23 12 15 0z m-85 -101 c0 -5 -4 -9 -8 -9 -5 0 -9 7 -9 15 0 8 4 12 9
9 4 -3 8 -9 8 -15z m-363 -471 c-3 -8 -6 -5 -6 6 -1 11 2 17 5 13 3 -3 4 -12
1 -19z m117 14 c3 7 3 2 -1 -12 -5 -23 -5 -24 12 -10 11 9 16 10 11 3 -4 -7
-2 -13 3 -13 6 0 11 -5 11 -12 0 -6 -3 -8 -7 -5 -3 4 -12 2 -19 -4 -8 -7 -14
-7 -19 1 -3 6 -12 7 -18 3 -7 -4 -6 0 2 10 11 14 11 20 0 35 -13 15 -12 16 3
4 13 -10 17 -10 22 0z m61 -11 c-3 -6 -11 -11 -16 -11 -5 0 -4 6 3 14 14 16
24 13 13 -3z m61 -28 c15 -15 24 -6 17 15 -4 13 -2 13 9 -2 10 -13 17 -15 22
-8 4 7 2 12 -5 12 -7 0 -9 3 -6 6 4 4 13 1 22 -6 18 -15 20 0 3 20 -11 12 -10
12 5 1 12 -9 15 -21 11 -35 -6 -20 -5 -20 12 -4 11 11 14 21 8 30 -5 8 -1 5 9
-5 9 -11 18 -16 18 -13 1 3 2 10 3 15 0 5 4 13 8 17 4 3 5 -3 3 -16 -3 -15 0
-20 9 -17 8 3 19 0 25 -6 8 -8 11 -8 11 2 0 8 7 10 23 5 l22 -7 -20 24 -20 24
26 -22 c30 -27 47 -30 28 -5 -7 9 -2 7 11 -5 20 -19 22 -25 11 -35 -10 -11
-15 -10 -25 5 -11 15 -15 15 -19 3 -4 -11 -42 -16 -42 -6 0 5 -61 6 -70 1 -5
-3 -21 -6 -35 -6 -14 0 -31 -4 -37 -8 -7 -5 -13 -4 -13 2 0 12 -24 9 -41 -6
-16 -13 -32 0 -37 31 -3 14 1 17 13 12 13 -5 15 -1 10 17 -6 21 -5 21 6 2 7
-11 18 -25 25 -32z m1 25 c-3 -8 -6 -5 -6 6 -1 11 2 17 5 13 3 -3 4 -12 1 -19z
m178 12 c3 -5 1 -10 -4 -10 -6 0 -11 5 -11 10 0 6 2 10 4 10 3 0 8 -4 11 -10z
m-495 -40 c0 -5 -4 -10 -10 -10 -5 0 -10 5 -10 10 0 6 5 10 10 10 6 0 10 -4
10 -10z"/>
<path d="M1613 4014 c9 -11 24 -21 32 -21 11 0 12 4 3 14 -6 7 -13 11 -16 8
-3 -3 -12 1 -21 7 -12 10 -12 7 2 -8z"/>
<path d="M4836 3771 c-4 -5 -2 -12 3 -15 5 -4 12 -2 15 3 4 5 2 12 -3 15 -5 4
-12 2 -15 -3z"/>
<path d="M4627 3704 c6 -15 23 -19 23 -5 0 5 -7 11 -14 14 -10 4 -13 1 -9 -9z"/>
<path d="M3680 3340 c-9 -6 -10 -10 -3 -10 6 0 15 5 18 10 8 12 4 12 -15 0z"/>
<path d="M6236 2418 c3 -5 10 -6 15 -3 13 9 11 12 -6 12 -8 0 -12 -4 -9 -9z"/>
<path d="M6331 2414 c6 -7 16 -11 21 -8 11 7 3 17 -18 20 -12 2 -13 -1 -3 -12z"/>
<path d="M6556 2422 c-3 -5 1 -9 9 -9 8 0 12 4 9 9 -3 4 -7 8 -9 8 -2 0 -6 -4
-9 -8z"/>
<path d="M6860 5000 c-9 -6 -10 -10 -3 -10 6 0 15 5 18 10 8 12 4 12 -15 0z"/>
<path d="M6970 4860 c0 -5 5 -10 11 -10 5 0 7 5 4 10 -3 6 -8 10 -11 10 -2 0
-4 -4 -4 -10z"/>
<path d="M6926 4840 c5 -8 9 -19 9 -24 0 -5 8 -14 18 -20 14 -8 20 -8 27 4 5
8 10 20 10 25 -1 6 -5 2 -11 -7 -12 -22 -29 -23 -29 -2 0 8 5 12 10 9 6 -3 10
-1 10 5 0 7 -6 10 -14 7 -7 -3 -19 0 -26 6 -10 9 -11 9 -4 -3z"/>
<path d="M6990 4781 c0 -6 4 -13 10 -16 6 -3 7 1 4 9 -7 18 -14 21 -14 7z"/>
<path d="M6995 4720 c-3 -5 -1 -10 4 -10 6 0 11 5 11 10 0 6 -2 10 -4 10 -3 0
-8 -4 -11 -10z"/>
<path d="M6953 4655 c0 -8 4 -15 9 -15 4 0 8 4 8 9 0 6 -4 12 -8 15 -5 3 -9
-1 -9 -9z"/>
<path d="M6929 4613 c-1 -4 -1 -11 0 -15 0 -5 -3 -8 -8 -8 -5 0 -12 -7 -15
-16 -3 -9 -2 -12 5 -9 6 4 7 -3 3 -19 -4 -16 -2 -26 5 -26 6 0 8 7 4 17 -4 10
-2 14 4 10 6 -4 10 1 9 11 0 9 4 16 11 15 6 -1 14 4 17 12 3 10 0 12 -11 8
-10 -4 -14 -2 -9 5 3 6 2 13 -4 17 -5 3 -11 3 -11 -2z"/>
<path d="M6840 4515 c-7 -8 -10 -15 -6 -15 4 0 -1 -12 -10 -27 -15 -26 -15
-27 1 -8 9 11 24 19 33 18 10 -1 11 0 4 3 -18 8 -4 24 16 17 18 -7 17 -5 -9
15 -13 10 -19 9 -29 -3z"/>
<path d="M248 4503 c6 -2 10 -9 7 -13 -3 -5 0 -12 6 -16 8 -4 9 -3 5 4 -4 7
-1 12 6 12 9 0 9 3 -2 10 -8 5 -19 9 -25 9 -5 0 -4 -3 3 -6z"/>
<path d="M293 4496 c0 -8 3 -14 6 -13 3 1 16 -4 28 -11 27 -15 39 0 16 19 -12
10 -14 10 -9 2 10 -18 -4 -16 -24 2 -14 13 -17 13 -17 1z"/>
<path d="M6741 4481 c-8 -5 -19 -7 -26 -5 -6 3 -12 -1 -12 -8 0 -20 33 -17 46
4 13 20 12 21 -8 9z"/>
<path d="M6879 4473 c-13 -16 -12 -17 4 -4 9 7 17 15 17 17 0 8 -8 3 -21 -13z"/>
<path d="M365 4458 c-16 -11 -21 -17 -10 -13 11 4 25 8 30 9 10 1 19 15 13 20
-1 2 -16 -6 -33 -16z"/>
<path d="M295 4460 c3 -5 8 -10 11 -10 2 0 4 5 4 10 0 6 -5 10 -11 10 -5 0 -7
-4 -4 -10z"/>
<path d="M6839 4453 c-13 -16 -12 -17 4 -4 9 7 17 15 17 17 0 8 -8 3 -21 -13z"/>
<path d="M6657 4444 c-6 -10 9 -42 16 -34 3 3 1 14 -3 24 -3 11 -9 15 -13 10z"/>
<path d="M375 4431 c-3 -5 -2 -12 3 -15 5 -3 9 1 9 9 0 17 -3 19 -12 6z"/>
<path d="M6710 4410 c0 -5 5 -10 11 -10 5 0 7 5 4 10 -3 6 -8 10 -11 10 -2 0
-4 -4 -4 -10z"/>
<path d="M473 4388 c1 -15 6 -23 11 -18 4 4 4 16 -2 26 -9 16 -10 14 -9 -8z"/>
<path d="M6650 4389 c0 -5 -4 -8 -9 -4 -5 3 -12 1 -15 -4 -4 -5 2 -8 11 -7 15
3 33 26 19 26 -3 0 -6 -5 -6 -11z"/>
<path d="M6549 4379 c-1 -8 -1 -17 0 -22 1 -4 -10 -5 -24 -3 -18 3 -25 0 -25
-11 0 -13 3 -13 15 -3 12 10 15 10 15 0 0 -10 3 -10 15 0 8 7 12 16 9 21 -3 5
-1 9 5 9 5 0 11 -6 14 -12 2 -7 7 -10 11 -7 3 3 -3 14 -14 24 -16 14 -20 15
-21 4z"/>
<path d="M510 4359 c0 -5 5 -7 10 -4 6 3 10 8 10 11 0 2 -4 4 -10 4 -5 0 -10
-5 -10 -11z"/>
<path d="M540 4366 c0 -2 7 -7 16 -10 8 -3 12 -2 9 4 -6 10 -25 14 -25 6z"/>
<path d="M866 4292 c-4 -7 -5 -12 -1 -12 3 0 1 -9 -5 -19 -7 -14 -7 -22 2 -27
7 -4 8 -3 4 4 -4 7 -2 12 4 12 6 0 8 5 4 11 -4 7 -1 10 7 7 8 -3 13 -14 11
-24 -2 -17 -2 -17 8 -2 11 19 44 13 33 -6 -3 -6 -1 -6 8 2 19 17 34 15 19 -4
-11 -12 -11 -15 1 -12 8 2 13 -2 12 -8 -1 -7 6 -10 17 -7 28 7 33 18 15 33 -9
8 -15 8 -15 2 0 -6 6 -13 13 -16 6 -3 3 -5 -8 -3 -11 1 -20 8 -20 14 0 7 -6
18 -12 25 -10 10 -13 9 -13 -2 0 -13 -2 -13 -10 0 -5 8 -10 11 -10 6 0 -5 -7
-3 -15 4 -8 7 -15 9 -15 4 0 -4 -6 0 -13 11 -10 12 -16 14 -21 7z"/>
<path d="M770 4280 c0 -5 5 -10 11 -10 5 0 7 5 4 10 -3 6 -8 10 -11 10 -2 0
-4 -4 -4 -10z"/>
<path d="M824 4279 c-4 -7 -3 -9 4 -5 5 3 13 0 15 -6 4 -9 6 -10 6 -1 1 17
-16 25 -25 12z"/>
<path d="M6570 4219 c0 -5 5 -7 10 -4 6 3 10 8 10 11 0 2 -4 4 -10 4 -5 0 -10
-5 -10 -11z"/>
<path d="M1060 4210 c-12 -8 -12 -10 3 -16 9 -3 14 -10 11 -15 -3 -5 0 -9 5
-9 6 0 10 9 8 20 -4 26 -10 31 -27 20z"/>
<path d="M1111 4184 c9 -11 9 -14 -1 -14 -8 0 -11 -2 -8 -5 9 -9 39 7 35 18
-2 6 -11 11 -21 13 -14 2 -15 0 -5 -12z"/>
<path d="M5940 4187 c0 -8 7 -14 15 -14 11 0 12 4 4 14 -6 7 -13 13 -15 13 -2
0 -4 -6 -4 -13z"/>
<path d="M6566 4182 c-3 -5 1 -9 9 -9 8 0 12 4 9 9 -3 4 -7 8 -9 8 -2 0 -6 -4
-9 -8z"/>
<path d="M5834 4156 c-10 -8 -16 -17 -13 -20 3 -3 14 1 25 8 10 8 16 17 13 20
-3 3 -14 -1 -25 -8z"/>
<path d="M1129 4143 c-13 -16 -12 -17 4 -4 9 7 17 15 17 17 0 8 -8 3 -21 -13z"/>
<path d="M1187 4153 c-4 -3 -7 -11 -7 -17 0 -6 5 -4 10 4 8 13 11 12 22 -3 13
-18 14 -18 31 1 14 15 14 19 2 19 -8 0 -12 -4 -9 -8 2 -4 0 -10 -5 -13 -5 -3
-11 1 -15 9 -6 16 -18 19 -29 8z"/>
<path d="M6550 4142 c0 -5 7 -9 15 -9 8 0 12 4 9 9 -3 4 -9 8 -15 8 -5 0 -9
-4 -9 -8z"/>
<path d="M1299 4114 c-7 -8 -9 -17 -5 -21 3 -3 6 -2 6 4 0 6 9 13 19 16 14 3
18 1 14 -9 -3 -8 0 -14 6 -14 18 0 25 -4 46 -25 11 -11 17 -16 13 -11 -4 5 0
19 10 30 9 12 13 18 8 14 -5 -4 -16 -2 -25 5 -14 10 -14 10 -3 -5 8 -10 9 -19
3 -22 -5 -4 -12 2 -16 13 -10 31 -58 47 -76 25z"/>
<path d="M1230 4099 c0 -5 5 -7 10 -4 6 3 10 8 10 11 0 2 -4 4 -10 4 -5 0 -10
-5 -10 -11z"/>
<path d="M5850 4096 c0 -8 4 -17 9 -20 5 -4 7 3 4 14 -6 23 -13 26 -13 6z"/>
<path d="M1336 4067 c3 -10 9 -15 12 -12 3 3 0 11 -7 18 -10 9 -11 8 -5 -6z"/>
<path d="M6540 4073 c0 -19 21 -27 33 -13 9 10 9 11 -2 5 -8 -4 -17 -2 -22 6
-6 9 -9 10 -9 2z"/>
<path d="M5636 4061 c-3 -5 5 -11 19 -13 30 -6 32 -2 6 12 -11 6 -22 6 -25 1z"/>
<path d="M5744 4063 c8 -8 56 -11 51 -3 -3 4 -16 8 -30 8 -14 0 -24 -3 -21 -5z"/>
<path d="M5653 4025 c0 -8 4 -15 9 -15 4 0 8 4 8 9 0 6 -4 12 -8 15 -5 3 -9
-1 -9 -9z"/>
<path d="M1450 4026 c0 -2 7 -7 16 -10 8 -3 12 -2 9 4 -6 10 -25 14 -25 6z"/>
<path d="M5477 4016 c-4 -10 -1 -13 9 -9 15 6 19 23 5 23 -5 0 -11 -7 -14 -14z"/>
<path d="M5615 4000 c-3 -5 -1 -10 4 -10 6 0 11 5 11 10 0 6 -2 10 -4 10 -3 0
-8 -4 -11 -10z"/>
<path d="M1581 3984 c0 -11 3 -14 6 -6 3 7 2 16 -1 19 -3 4 -6 -2 -5 -13z"/>
<path d="M6540 3993 c0 -6 8 -17 18 -24 16 -13 16 -13 2 6 -8 11 -16 22 -17
24 -2 2 -3 0 -3 -6z"/>
<path d="M5519 3973 c-12 -16 -12 -17 2 -6 9 7 19 10 22 6 4 -3 7 -1 7 5 0 17
-16 15 -31 -5z"/>
<path d="M6522 3976 c4 -5 3 -15 -4 -23 -6 -7 -8 -16 -4 -20 3 -3 6 -1 6 6 0
7 4 10 9 6 18 -10 21 13 3 26 -9 7 -14 9 -10 5z"/>
<path d="M1753 3960 c2 -8 0 -22 -4 -32 -7 -12 -5 -15 9 -13 9 2 20 4 23 4 4
1 9 10 12 20 3 13 0 18 -12 16 -9 -1 -20 3 -24 9 -6 7 -7 6 -4 -4z m19 -32
c-7 -7 -12 -8 -12 -2 0 14 12 26 19 19 2 -3 -1 -11 -7 -17z"/>
<path d="M5296 3952 c-3 -5 1 -9 9 -9 8 0 12 4 9 9 -3 4 -7 8 -9 8 -2 0 -6 -4
-9 -8z"/>
<path d="M6525 3920 c-3 -5 3 -18 14 -29 11 -11 16 -23 13 -27 -4 -4 -1 -4 7
1 12 7 11 10 -2 20 -9 7 -14 15 -10 18 3 4 0 7 -8 7 -11 0 -11 2 1 10 9 6 10
10 3 10 -6 0 -14 -4 -18 -10z"/>
<path d="M1853 3907 c-3 -6 -1 -7 5 -3 7 4 12 2 12 -5 0 -8 4 -8 15 1 18 15
20 -1 3 -19 -11 -10 -9 -11 5 -5 10 3 17 13 15 22 -3 17 -46 24 -55 9z"/>
<path d="M1925 3892 c3 -3 -2 -13 -10 -22 -13 -15 -13 -17 0 -17 8 0 13 3 10
5 -3 3 2 13 10 22 13 15 13 17 0 17 -8 0 -13 -3 -10 -5z"/>
<path d="M1839 3873 c-12 -16 -12 -17 2 -6 9 7 20 9 24 5 5 -4 5 -1 1 6 -9 16
-11 15 -27 -5z"/>
<path d="M5300 3886 c0 -2 7 -6 15 -10 8 -3 15 -1 15 4 0 6 -7 10 -15 10 -8 0
-15 -2 -15 -4z"/>
<path d="M1953 3835 c0 -8 4 -12 9 -9 5 3 6 10 3 15 -9 13 -12 11 -12 -6z"/>
<path d="M2093 3830 c-1 -11 3 -20 8 -20 6 0 7 -4 4 -10 -3 -5 0 -7 9 -4 8 3
17 13 21 22 3 9 3 13 -1 9 -4 -4 -15 0 -24 8 -14 13 -16 12 -17 -5z"/>
<path d="M4931 3812 c-13 -19 -27 -29 -36 -25 -8 3 -15 0 -15 -6 0 -6 7 -12
15 -12 35 -3 40 -6 37 -18 -1 -7 2 -10 8 -6 8 5 8 11 -1 21 -9 11 -6 16 14 23
14 5 28 15 33 22 4 7 3 10 -4 5 -6 -3 -15 1 -20 10 -8 14 -12 12 -31 -14z m34
-2 c3 -5 1 -10 -4 -10 -6 0 -11 5 -11 10 0 6 2 10 4 10 3 0 8 -4 11 -10z m-25
-14 c0 -2 -8 -10 -17 -17 -16 -13 -17 -12 -4 4 13 16 21 21 21 13z"/>
<path d="M5130 3831 c0 -6 4 -13 10 -16 6 -3 7 1 4 9 -7 18 -14 21 -14 7z"/>
<path d="M6509 3822 c6 -11 7 -23 3 -28 -6 -7 4 0 48 35 3 2 -2 1 -10 -1 -8
-3 -23 -1 -33 4 -16 8 -17 7 -8 -10z"/>
<path d="M6570 3819 c0 -5 5 -7 10 -4 6 3 10 8 10 11 0 2 -4 4 -10 4 -5 0 -10
-5 -10 -11z"/>
<path d="M5040 3786 c0 -2 8 -10 18 -17 15 -13 16 -12 3 4 -13 16 -21 21 -21
13z"/>
<path d="M6519 3774 c-16 -19 -20 -54 -8 -74 5 -8 9 -11 9 -6 0 5 8 2 18 -5 9
-7 14 -9 10 -5 -4 5 0 15 10 23 16 13 15 13 -3 5 -22 -10 -45 -6 -45 10 0 5
10 7 23 3 17 -5 19 -4 7 4 -13 9 -13 11 -1 11 11 0 10 4 -4 14 -18 13 -18 13
1 24 10 6 14 12 8 12 -6 0 -17 -7 -25 -16z"/>
<path d="M6556 3775 c-11 -8 -15 -15 -9 -15 6 0 16 7 23 15 16 19 11 19 -14 0z"/>
<path d="M2070 3759 c0 -5 5 -7 10 -4 6 3 10 8 10 11 0 2 -4 4 -10 4 -5 0 -10
-5 -10 -11z"/>
<path d="M2134 3758 c-4 -7 -4 -10 1 -6 4 4 15 2 24 -5 14 -11 14 -10 2 6 -16
20 -18 21 -27 5z"/>
<path d="M4890 3756 c0 -2 8 -10 18 -17 15 -13 16 -12 3 4 -13 16 -21 21 -21
13z"/>
<path d="M2306 3698 c3 -5 10 -6 15 -3 13 9 11 12 -6 12 -8 0 -12 -4 -9 -9z"/>
<path d="M2449 3688 c-6 -12 -8 -20 -4 -16 5 4 13 3 20 -2 8 -7 11 -4 10 10
-2 31 -12 34 -26 8z"/>
<path d="M1691 3673 c-19 -9 -47 -37 -63 -62 l-28 -46 2 -955 3 -955 29 -62
c16 -35 33 -63 38 -63 5 0 6 -9 3 -20 -4 -12 -2 -20 5 -20 6 0 8 6 4 13 -4 6
7 -1 24 -17 17 -16 29 -33 26 -38 -3 -4 1 -8 8 -8 12 0 30 -13 96 -70 13 -11
28 -20 33 -20 5 0 9 -5 9 -11 0 -5 5 -7 11 -3 8 4 9 -1 4 -17 -6 -22 -6 -22 7
-6 13 17 15 17 38 -5 13 -13 27 -23 30 -23 3 0 4 -4 2 -9 -2 -5 8 -6 22 -4 17
4 23 1 19 -8 -3 -7 -10 -12 -15 -11 -6 1 -13 -5 -15 -13 -3 -9 -1 -11 4 -5 4
6 13 11 18 12 6 1 17 4 26 8 8 3 25 -3 38 -14 12 -11 29 -17 36 -15 7 3 16 1
20 -5 3 -6 15 -11 26 -11 10 0 19 -4 19 -9 0 -6 -9 -9 -20 -8 -11 1 -20 6 -20
11 0 5 -3 6 -6 3 -4 -3 -16 -1 -28 5 -17 8 -19 8 -9 -2 6 -7 9 -20 6 -29 -4
-13 -3 -13 5 -2 11 16 47 7 37 -9 -3 -5 -1 -10 4 -10 6 0 11 5 11 10 0 6 4 10
10 10 5 0 7 -8 4 -18 -4 -13 -3 -14 4 -4 5 8 11 14 14 15 10 4 37 -25 34 -36
-1 -7 -1 -9 1 -4 3 4 10 4 15 1 7 -4 8 -2 4 4 -4 7 -3 12 3 12 5 0 13 -9 16
-21 4 -12 13 -19 23 -17 10 2 24 -3 32 -12 8 -8 12 -11 8 -6 -12 16 -9 22 11
23 14 1 18 -3 14 -13 -3 -8 0 -14 7 -14 6 0 8 5 5 10 -3 6 -1 10 6 10 7 0 4 6
-7 14 -10 8 -16 18 -11 22 4 4 7 2 7 -5 0 -7 5 -9 10 -6 6 3 10 2 10 -4 0 -5
9 -8 21 -6 17 3 19 2 9 -10 -7 -8 -16 -12 -21 -9 -5 3 -9 0 -9 -5 0 -6 5 -11
11 -11 5 0 8 -4 5 -9 -4 -5 2 -8 11 -7 22 4 47 -29 37 -47 -5 -9 -4 -9 6 0 11
10 11 15 0 28 -7 8 -10 18 -6 22 3 4 12 -2 20 -12 12 -17 16 -17 30 -6 9 8 20
11 23 7 4 -4 1 -12 -7 -17 -13 -9 -13 -10 0 -6 8 2 14 12 14 21 -1 10 0 15 3
12 3 -3 14 -1 24 5 15 7 17 6 13 -6 -4 -8 -2 -15 4 -15 5 0 12 7 16 15 4 12
10 10 30 -10 25 -25 53 -35 40 -13 -4 6 -3 8 4 4 5 -3 12 -1 14 6 3 7 7 2 10
-10 4 -12 2 -20 -2 -17 -5 3 -15 2 -24 -1 -15 -6 -15 -8 1 -19 16 -12 22 -9
46 18 16 18 26 26 22 20 -8 -17 7 -17 25 -1 12 11 12 10 1 -4 -16 -21 -9 -23
22 -7 l22 12 -20 -20 c-11 -11 -24 -17 -30 -13 -27 20 -45 6 -36 -28 1 -1 10
2 21 8 15 8 20 8 20 -2 0 -6 7 -3 15 8 14 18 14 18 10 -4 -4 -22 -3 -22 20 -5
12 10 21 22 18 27 -3 4 -9 2 -14 -5 -5 -8 -9 -9 -9 -4 0 6 4 16 9 23 7 11 9
10 14 -3 5 -11 11 -13 24 -7 21 11 46 5 37 -9 -8 -13 10 -11 24 3 7 7 12 8 12
4 0 -5 -8 -15 -17 -21 -16 -12 -15 -13 9 -12 23 2 27 6 23 26 -2 13 -1 20 3
16 7 -6 8 -10 11 -36 0 -5 5 -8 11 -4 5 3 7 13 4 23 -5 14 -4 15 5 2 6 -8 11
-11 11 -6 0 5 9 1 20 -9 16 -15 22 -15 35 -5 11 9 15 9 15 1 0 -7 10 -11 22
-9 12 2 23 -3 25 -12 4 -13 3 -13 -6 0 -8 11 -11 11 -11 2 0 -10 -5 -10 -21
-2 -11 7 -23 9 -27 6 -3 -3 0 -6 7 -6 8 0 9 -5 1 -19 -7 -14 -7 -22 2 -27 7
-5 8 -3 3 6 -6 10 -4 12 10 6 15 -5 16 -4 5 9 -18 22 4 18 24 -4 13 -14 14
-20 5 -23 -9 -3 -8 -6 3 -10 16 -7 19 7 5 28 -3 6 -3 14 0 18 4 4 13 -4 20
-16 11 -20 12 -21 13 -4 0 15 3 16 15 6 8 -7 12 -16 9 -21 -5 -8 20 -2 41 10
16 9 29 8 38 -4 5 -6 7 -4 4 5 -4 17 -26 21 -44 7 -15 -11 -47 -1 -39 12 3 4
-4 8 -17 7 -27 -1 -35 29 -10 38 14 6 16 5 6 -5 -7 -7 -13 -18 -13 -23 1 -6 9
-1 19 11 l18 21 28 -24 c15 -13 32 -21 36 -18 14 8 11 24 -3 20 -7 -1 -10 -1
-5 1 4 3 4 10 0 16 -4 7 1 6 11 -2 9 -8 15 -20 12 -28 -3 -7 1 -13 8 -13 8 0
13 -8 11 -17 -1 -10 0 -12 2 -5 3 7 9 9 15 6 7 -4 8 -2 4 4 -4 7 -3 12 3 12
19 0 21 -19 4 -29 -10 -6 -13 -11 -7 -11 6 0 17 7 24 15 7 8 17 12 22 9 6 -4
5 -10 -3 -15 -8 -5 -9 -9 -3 -9 6 0 17 7 24 15 16 19 41 20 34 1 -3 -7 2 -16
12 -20 14 -5 15 -4 4 9 -7 8 -9 15 -4 15 4 0 3 5 -3 11 -6 6 -9 18 -6 25 4 10
9 8 22 -8 12 -15 20 -18 25 -10 4 7 1 12 -6 12 -8 0 -6 5 5 11 13 8 22 7 33
-1 11 -10 14 -10 14 -1 0 7 5 9 10 6 6 -3 10 -1 10 6 0 7 3 9 7 5 4 -4 -3 -16
-17 -26 -17 -13 -20 -18 -9 -17 10 2 25 9 35 17 17 14 18 14 5 -2 -8 -11 -9
-18 -3 -18 6 0 14 5 17 10 4 6 10 8 15 5 5 -3 11 5 13 17 l4 23 2 -23 c0 -13
6 -20 11 -17 6 4 8 12 4 18 -3 7 4 1 15 -13 11 -14 21 -29 21 -35 0 -5 -5 -3
-10 5 -5 8 -10 11 -10 5 0 -5 5 -17 10 -25 7 -11 10 -11 10 -2 0 7 4 11 9 7 5
-3 13 -1 16 5 5 8 15 6 31 -5 16 -10 24 -11 24 -4 0 9 3 9 14 0 10 -8 16 -8
24 2 14 16 -8 63 -27 59 -7 -1 -10 2 -6 7 7 12 35 3 35 -11 0 -5 4 -6 10 -3 5
3 7 0 4 -8 -3 -8 2 -21 10 -30 8 -8 13 -16 11 -19 -2 -2 4 -4 15 -4 10 0 17 3
14 7 -2 4 3 10 12 13 12 5 15 2 10 -9 -3 -9 -2 -13 4 -10 6 3 10 13 10 21 0 8
5 12 10 9 6 -4 8 -11 5 -16 -4 -5 3 -6 17 0 13 4 29 6 36 4 6 -3 12 2 12 11 0
9 -5 16 -11 16 -5 0 -7 -6 -4 -12 4 -7 0 -4 -9 7 -8 11 -21 26 -28 34 -10 12
-9 14 6 8 10 -4 20 -7 22 -7 3 0 2 -5 -2 -11 -5 -8 1 -10 18 -7 19 3 25 1 24
-11 -1 -11 7 -15 24 -14 14 1 32 -1 40 -4 27 -11 39 -11 37 -1 -1 6 4 13 12
16 9 3 11 0 6 -9 -5 -8 2 -5 15 6 l23 20 -8 -24 c-6 -21 -5 -22 8 -10 8 8 13
17 10 22 -2 4 10 7 27 7 17 0 29 -4 25 -10 -3 -5 -11 -8 -18 -6 -7 1 -9 1 -4
-1 4 -3 4 -10 0 -16 -3 -7 4 -3 16 7 24 22 61 29 61 12 0 -8 3 -8 8 -1 10 15
48 12 44 -3 -1 -8 2 -11 8 -7 8 5 7 11 -1 21 -6 8 -8 18 -4 22 4 4 10 2 12 -5
3 -8 10 -7 22 5 10 9 16 20 14 24 -2 4 3 5 12 2 11 -4 14 -2 9 9 -3 8 -13 13
-24 10 -21 -6 -36 12 -19 23 8 5 9 3 4 -6 -6 -10 -3 -12 14 -7 14 3 24 0 28
-9 3 -8 8 -12 12 -9 4 2 8 -2 8 -10 0 -8 -4 -12 -9 -9 -4 3 -8 0 -8 -5 0 -6
-5 -10 -11 -8 -6 1 -18 -9 -26 -23 l-15 -25 19 24 c14 16 22 20 27 12 4 -6 13
-11 19 -10 9 0 9 2 0 5 -8 4 -5 12 8 25 16 16 18 23 9 34 -7 8 -10 20 -7 27 3
8 6 5 6 -6 1 -11 4 -16 8 -13 3 4 12 2 20 -4 10 -9 18 -8 33 6 11 10 17 21 15
26 -3 4 0 11 6 15 7 4 9 3 6 -3 -4 -6 1 -14 11 -19 23 -10 52 -13 52 -4 0 4
18 7 40 7 22 0 40 -4 40 -8 0 -4 -9 -6 -20 -4 -13 2 -18 0 -14 -7 4 -6 -3 -5
-16 2 -18 10 -21 9 -15 -1 5 -7 4 -10 -3 -5 -6 3 -13 2 -17 -4 -4 -7 -12 -7
-25 0 -13 7 -21 7 -25 0 -6 -10 -2 -12 33 -13 9 -1 22 -8 29 -17 10 -13 11
-12 10 4 -1 10 5 21 13 23 10 3 11 2 3 -4 -8 -6 -9 -14 -3 -23 8 -12 10 -12
10 4 0 12 5 16 14 13 10 -4 13 -1 10 7 -6 16 26 17 45 2 12 -9 13 -8 6 3 -6
11 -4 13 7 9 8 -4 21 -2 28 2 8 5 22 4 33 -2 13 -7 17 -7 13 0 -4 6 1 15 9 20
14 7 12 10 -8 19 -18 9 -24 8 -24 -2 0 -7 7 -11 16 -8 13 4 14 3 2 -5 -8 -6
-23 -9 -33 -7 -10 2 -18 -1 -18 -7 0 -7 -7 -3 -16 8 -8 10 -12 13 -8 5 5 -10
3 -12 -6 -6 -9 6 -11 4 -5 -5 5 -8 4 -11 -3 -6 -6 4 -9 13 -5 21 6 17 33 20
33 4 0 -5 4 -8 10 -4 5 3 6 13 3 23 -4 13 -2 13 11 -3 15 -19 16 -19 9 -1 -5
15 -3 18 10 13 8 -3 18 -1 21 6 2 7 5 4 5 -5 1 -11 9 -18 20 -18 15 0 18 -5
14 -22 -3 -13 -3 -21 0 -18 3 3 8 17 11 32 4 22 1 26 -15 23 -11 -2 -17 0 -14
6 4 5 11 6 17 3 8 -5 9 -1 5 10 -4 9 -3 15 2 11 5 -3 12 1 15 7 3 7 3 2 0 -12
l-5 -25 25 27 c16 18 26 23 29 15 3 -8 10 -5 20 8 16 20 16 20 14 -1 -1 -17
-7 -21 -24 -19 -13 1 -26 -2 -29 -6 -3 -5 2 -9 10 -9 9 0 13 -6 10 -14 -3 -7
2 -16 12 -20 13 -5 14 -4 6 7 -12 14 -7 27 10 27 5 0 6 -4 3 -10 -7 -12 23 -2
44 14 11 8 15 8 18 -1 3 -7 9 -13 15 -13 7 0 6 5 -1 14 -7 9 -8 17 -2 20 5 3
12 0 14 -6 4 -10 6 -10 6 0 1 6 6 12 12 12 5 0 8 -4 4 -9 -8 -14 36 -4 49 10
8 8 5 8 -12 0 -18 -9 -23 -9 -28 2 -2 7 -11 14 -19 14 -8 0 -12 -3 -10 -7 2
-4 -2 -7 -10 -7 -8 0 -11 5 -8 10 3 6 1 7 -6 3 -6 -4 -9 -12 -6 -17 4 -5 2 -9
-4 -9 -5 0 -9 9 -8 19 0 11 4 18 8 15 11 -6 39 37 32 49 -3 6 -1 7 5 3 8 -5 9
-13 2 -25 -5 -10 -6 -21 -3 -25 11 -10 31 38 21 51 -6 7 -4 14 3 19 8 4 9 3 5
-5 -4 -6 0 -14 9 -17 9 -4 25 -23 36 -43 13 -24 17 -28 13 -11 -6 23 -5 24 11
10 15 -13 19 -12 30 3 6 9 16 13 21 9 4 -4 2 1 -5 11 -8 9 -11 20 -7 24 3 4
13 -2 20 -13 8 -10 18 -16 22 -11 4 4 2 7 -5 7 -7 0 -10 4 -7 9 8 12 -20 22
-39 15 -8 -4 -12 -11 -8 -17 4 -6 1 -7 -7 -2 -9 6 -11 4 -6 -6 4 -8 0 -5 -10
6 -13 16 -16 17 -11 3 3 -10 2 -20 -2 -22 -5 -3 -8 4 -7 16 1 21 18 28 73 30
14 0 21 5 17 12 -3 6 1 3 9 -7 18 -21 43 -22 51 -1 3 9 11 12 18 8 7 -4 10 -4
6 1 -4 4 -3 14 4 22 6 8 11 31 11 51 -1 28 1 31 6 14 3 -13 9 -23 14 -23 4 1
12 1 18 1 5 0 7 5 4 11 -8 11 25 40 37 33 5 -3 8 2 8 10 0 9 -4 16 -10 16 -5
0 -10 5 -10 11 0 8 4 8 14 0 12 -10 17 -8 26 8 6 12 15 21 20 21 6 0 21 10 35
22 18 16 22 25 14 34 -7 9 -7 18 1 31 9 15 10 14 4 -7 -6 -24 -5 -24 12 -8 14
14 16 21 6 30 -7 7 -12 16 -12 22 0 5 6 1 14 -10 8 -11 18 -15 23 -10 4 5 2
11 -4 13 -7 3 -13 9 -13 14 0 5 9 4 20 -3 17 -11 18 -14 5 -28 -8 -9 -12 -20
-8 -25 5 -4 2 -5 -6 0 -10 6 -12 4 -6 -5 6 -9 4 -11 -6 -5 -11 6 -12 5 -1 -6
10 -11 15 -10 28 9 8 12 23 22 32 23 14 0 14 2 -3 8 -18 7 -18 8 -1 18 10 6
20 22 21 37 2 15 6 30 9 34 3 3 -1 14 -11 24 -15 17 -15 19 2 38 14 16 16 23
7 32 -18 18 -14 27 8 23 11 -2 20 1 20 7 0 5 -6 8 -14 5 -8 -3 -17 -3 -21 1
-4 4 -16 7 -28 7 -12 0 -22 7 -23 15 0 9 1 10 3 2 3 -7 8 -10 13 -7 5 3 6 13
3 22 -4 10 -2 14 6 12 7 -3 12 -8 11 -13 -2 -10 20 -26 35 -26 6 0 3 5 -5 10
-12 7 -13 13 -3 28 7 12 8 24 2 33 -8 11 -9 10 -7 -5 2 -10 -2 -21 -7 -22 -6
-2 -10 12 -11 31 -1 25 2 33 10 25 13 -13 26 -13 26 0 0 5 -3 9 -7 9 -5 -1
-11 0 -15 1 -5 1 -18 3 -30 4 -15 1 -23 8 -25 21 -1 16 -1 16 3 2 3 -9 9 -15
14 -12 5 3 6 13 3 22 -4 11 -2 14 8 11 8 -3 13 -10 12 -16 -1 -5 3 -12 10 -15
7 -3 12 4 12 18 0 15 -5 21 -15 18 -8 -3 -4 5 10 18 18 16 20 20 7 16 -10 -4
-23 -7 -28 -7 -6 0 -7 -4 -4 -10 3 -5 2 -10 -2 -10 -5 0 -14 9 -20 19 -10 15
-9 20 2 25 10 3 12 0 8 -11 -5 -13 -3 -14 15 -4 24 13 28 26 12 36 -6 4 -7 -1
-4 -12 5 -15 4 -15 -5 -3 -6 8 -16 15 -22 15 -7 0 -14 7 -16 15 -4 12 -3 13 5
1 8 -11 12 -9 22 9 11 20 10 21 -10 15 -15 -5 -20 -4 -16 4 4 6 23 9 43 7 19
-3 33 -2 29 1 -3 3 -1 14 5 24 5 11 6 19 2 18 -20 -3 -34 2 -28 11 4 6 11 7
17 4 7 -4 8 -2 4 4 -4 6 -13 9 -21 5 -10 -3 -15 2 -15 17 0 11 -4 18 -10 15
-5 -3 -10 -1 -10 4 0 17 18 13 28 -5 8 -14 10 -14 14 4 4 14 2 19 -6 16 -7 -3
-13 2 -13 11 0 9 6 14 12 11 7 -2 12 3 11 12 0 9 5 16 12 15 6 -2 12 2 12 8 0
6 -6 9 -14 6 -8 -3 -17 -3 -21 1 -4 4 -16 7 -28 7 -12 0 -22 7 -23 15 0 9 1
10 3 2 3 -7 8 -10 13 -7 5 3 6 13 3 22 -4 10 -2 14 6 12 7 -3 12 -8 11 -13 -2
-10 20 -26 35 -26 6 0 3 5 -5 10 -12 7 -13 13 -3 28 7 12 8 24 2 33 -8 11 -9
10 -7 -5 2 -10 -2 -21 -8 -23 -6 -2 -11 6 -10 19 1 25 -16 38 -23 17 -2 -6 1
-9 6 -6 5 3 10 0 10 -8 0 -20 -7 -19 -22 2 -17 24 10 46 38 31 10 -5 21 -7 25
-4 3 3 -1 6 -9 6 -12 0 -11 2 1 10 10 6 1 8 -28 5 -26 -2 -40 0 -36 6 3 6 15
9 26 7 13 -2 23 4 28 17 6 16 3 20 -16 21 -13 1 -24 -2 -24 -7 0 -5 7 -9 15
-9 8 0 15 -5 15 -10 0 -7 -6 -7 -19 0 -30 16 -34 28 -10 35 20 7 18 20 -4 20
-7 0 -12 7 -13 15 0 9 1 10 3 2 7 -19 23 -4 17 16 -5 14 -3 14 10 -2 8 -10 13
-22 11 -26 -3 -5 2 -11 11 -14 10 -4 13 -2 8 6 -4 6 1 17 11 25 11 7 13 13 6
13 -7 0 -9 5 -5 13 6 9 4 9 -7 -1 -19 -18 -29 -15 -29 11 0 14 -3 18 -8 10 -6
-9 -11 -7 -20 7 -10 16 -8 20 9 25 20 7 18 20 -4 20 -7 0 -12 7 -13 15 0 9 1
10 3 2 3 -7 8 -10 13 -7 5 3 7 12 3 20 -3 8 0 15 7 15 6 0 9 -4 5 -9 -3 -5 -1
-12 5 -16 6 -4 8 -10 5 -15 -3 -4 3 -11 13 -15 16 -6 16 -7 0 -19 -11 -8 -14
-17 -7 -27 7 -11 9 -11 9 4 0 10 4 16 9 13 11 -7 9 13 -3 33 -10 15 12 33 29
24 5 -4 6 -2 2 2 -11 13 -37 15 -37 4 0 -6 -4 -8 -9 -5 -10 7 -9 31 2 42 4 4
7 2 7 -4 0 -7 4 -12 8 -12 4 0 8 11 8 24 0 14 -4 22 -8 20 -4 -3 -8 -1 -8 5 0
5 6 11 13 14 6 3 2 5 -9 4 -16 -1 -21 -7 -19 -24 1 -13 -2 -20 -8 -16 -6 3 -7
1 -3 -5 11 -19 -5 -14 -19 5 -11 15 -9 21 18 40 16 12 35 20 41 16 6 -3 8 -3
4 2 -4 4 -3 16 3 26 5 11 6 19 2 18 -20 -3 -34 2 -28 11 4 6 11 7 17 4 7 -4 8
-2 4 4 -4 6 -13 9 -21 5 -10 -3 -15 2 -15 17 0 11 -4 18 -10 15 -5 -3 -10 -1
-10 4 0 17 18 13 28 -5 8 -14 10 -14 14 4 4 14 2 19 -6 16 -7 -3 -13 2 -13 11
0 9 6 14 12 11 7 -2 12 3 11 12 0 9 5 16 12 15 6 -2 12 2 12 8 0 6 -6 9 -14 6
-8 -3 -17 -3 -21 1 -4 4 -16 7 -28 7 -14 0 -22 7 -24 20 -1 16 -1 16 3 2 3 -9
9 -15 14 -12 5 3 6 13 3 22 -4 10 -2 14 6 12 7 -3 12 -8 11 -13 -2 -10 20 -26
35 -26 6 0 3 5 -5 10 -12 7 -13 13 -3 28 7 12 8 24 2 33 -8 11 -9 10 -7 -5 2
-10 -2 -21 -8 -23 -7 -2 -11 7 -10 21 1 26 -15 37 -23 15 -2 -6 1 -9 6 -6 5 3
10 0 10 -8 0 -20 -7 -19 -22 2 -17 24 10 46 38 31 10 -5 21 -7 25 -4 3 3 -1 6
-9 6 -12 0 -11 2 1 10 10 6 1 8 -28 5 -26 -2 -40 0 -36 6 3 6 15 9 26 7 13 -2
23 4 28 17 6 16 3 20 -16 21 -13 1 -24 -2 -24 -7 0 -5 7 -9 15 -9 8 0 15 -5
15 -10 0 -7 -6 -7 -19 0 -30 16 -34 28 -10 35 20 7 18 20 -4 20 -7 0 -12 7
-13 15 0 9 1 10 3 2 7 -19 23 -4 17 16 -5 14 -3 14 10 -2 8 -10 13 -22 11 -26
-3 -5 2 -11 11 -14 10 -4 13 -2 8 6 -4 6 1 17 11 25 11 7 13 13 6 13 -7 0 -9
5 -5 13 6 10 4 10 -7 0 -19 -19 -29 -16 -29 10 0 14 -3 18 -8 10 -6 -9 -11 -7
-20 7 -10 16 -8 20 9 25 20 7 18 20 -4 20 -7 0 -12 7 -13 15 0 9 1 10 3 2 3
-7 8 -10 13 -7 5 3 7 12 3 20 -3 8 0 15 7 15 6 0 9 -4 5 -9 -3 -5 -1 -12 5
-16 6 -4 8 -10 5 -15 -3 -4 3 -11 13 -15 16 -6 16 -7 0 -19 -11 -8 -14 -17 -7
-27 7 -11 9 -11 9 4 0 10 4 16 9 13 11 -7 9 13 -3 33 -10 15 12 33 29 24 5 -4
6 -2 2 2 -11 13 -37 15 -37 4 0 -6 -4 -8 -9 -5 -10 7 -9 31 2 42 4 4 7 2 7 -4
0 -7 4 -12 8 -12 4 0 8 11 8 24 0 14 -4 22 -8 20 -11 -7 -10 30 2 42 6 6 5 15
-1 24 -9 12 -10 12 -5 -3 3 -10 0 -20 -8 -23 -7 -3 -12 -18 -11 -34 1 -17 -2
-27 -8 -23 -6 3 -7 1 -3 -5 4 -7 3 -12 -1 -12 -5 0 -14 9 -21 20 -7 12 -8 20
-2 20 5 0 10 6 10 14 0 8 7 16 15 20 17 6 20 26 4 26 -5 0 -8 -4 -5 -8 2 -4
-4 -8 -14 -9 -11 -1 -22 2 -25 8 -4 5 2 6 12 2 14 -5 16 -3 6 7 -9 10 -7 17
10 32 20 17 20 18 3 16 -10 -2 -21 4 -23 12 -3 9 -1 11 4 5 11 -14 40 -12 55
3 7 8 9 13 3 12 -24 -5 -26 1 -4 20 13 11 20 20 14 19 -25 -3 -32 3 -31 24 1
14 -4 21 -13 19 -8 -2 -11 3 -8 11 3 7 -1 14 -8 14 -7 0 -11 -7 -10 -16 2 -9
4 -20 4 -25 1 -5 7 -3 14 3 10 8 14 7 14 -4 0 -8 -4 -12 -8 -10 -4 3 -6 -3 -4
-12 2 -10 4 -18 5 -18 1 0 3 -8 5 -17 2 -10 -1 -18 -6 -18 -5 0 -9 5 -9 11 0
5 -6 7 -12 3 -10 -6 -10 -4 0 8 11 14 10 18 -5 27 -11 6 -13 11 -5 11 8 0 10
5 6 12 -4 6 -8 23 -10 37 -1 14 -3 26 -4 26 -1 0 -3 10 -6 23 -2 13 -11 30
-19 39 -8 8 -13 19 -9 24 3 5 2 8 -3 7 -4 -1 -21 6 -37 17 -17 11 -52 21 -85
23 -48 3 -73 -2 -166 -38 -60 -23 -139 -53 -175 -65 -36 -13 -94 -35 -130 -48
-36 -13 -220 -82 -410 -151 -190 -70 -355 -131 -368 -137 -41 -16 -315 -116
-357 -130 -64 -20 -187 -19 -263 2 -96 26 -162 50 -158 58 2 3 -8 7 -22 8 -15
1 -45 10 -67 19 -22 10 -43 17 -47 16 -5 -1 -8 2 -8 6 0 4 -8 8 -17 9 -10 1
-31 7 -48 14 -16 7 -34 13 -40 15 -9 2 -154 55 -200 73 -28 11 -113 43 -220
82 -49 19 -93 37 -96 42 -3 5 -10 8 -15 7 -15 -2 -94 22 -100 31 -3 5 -14 9
-25 9 -13 0 -18 4 -13 12 5 7 3 8 -5 3 -7 -4 -23 -2 -34 3 -21 11 -91 36 -189
69 -27 9 -45 20 -41 26 3 6 1 7 -5 3 -6 -3 -54 10 -107 29 -108 39 -171 44
-224 18z m3774 -221 c-3 -3 -11 0 -18 7 -9 10 -8 11 6 5 10 -3 15 -9 12 -12z
m-11 -613 c-9 -10 -13 -19 -9 -19 5 0 5 -3 2 -7 -4 -3 -14 2 -21 13 -13 17
-12 20 7 31 30 16 42 5 21 -18z m-22 -73 c7 4 8 2 4 -5 -10 -15 -26 -4 -25 17
1 15 2 15 6 -1 2 -9 9 -14 15 -11z m41 -50 c4 4 7 2 7 -4 0 -14 -59 -46 -68
-37 -3 3 4 8 16 12 22 5 32 43 11 43 -6 0 -8 -7 -5 -16 5 -14 4 -15 -9 -4 -14
11 -13 14 2 26 15 11 20 10 29 -7 5 -11 13 -16 17 -13z m-19 -517 c-9 -10 -13
-19 -9 -19 5 0 5 -3 2 -7 -4 -3 -14 2 -21 13 -13 17 -12 20 7 31 30 16 42 5
21 -18z m-22 -73 c7 4 8 2 4 -5 -10 -15 -26 -4 -25 17 1 15 2 15 6 -1 2 -9 9
-14 15 -11z m42 -49 c5 4 7 2 4 -6 -7 -24 -28 -25 -28 -2 0 12 -5 21 -11 21
-6 0 -8 -7 -5 -16 5 -14 4 -15 -9 -4 -14 11 -13 14 2 26 15 11 20 10 29 -7 5
-11 14 -16 18 -12z m-41 -234 c-4 -10 -2 -14 4 -10 5 3 10 0 10 -8 0 -21 -10
-19 -24 4 -12 19 -11 21 14 30 1 1 -1 -6 -4 -16z m15 -107 c-18 -13 -26 -32
-10 -22 4 2 14 1 22 -4 12 -7 10 -13 -9 -34 l-23 -24 22 -12 c16 -9 19 -15 10
-24 -5 -8 -8 -20 -5 -28 3 -8 0 -20 -8 -26 -11 -9 -19 -6 -38 15 -13 14 -19
23 -12 19 7 -3 14 2 18 14 3 11 11 20 16 20 6 0 7 5 3 12 -5 8 -13 5 -25 -10
-9 -12 -20 -22 -24 -22 -4 0 -2 6 4 13 6 8 7 17 3 21 -4 4 0 6 8 4 8 -2 14 3
12 10 -1 8 1 11 5 9 5 -2 17 5 28 16 11 11 14 17 7 13 -8 -5 -19 -1 -27 10
-12 17 -11 20 8 31 29 16 36 16 15 -1z m-109 -219 c-2 -1 -13 -9 -24 -17 -19
-14 -19 -14 -6 3 7 9 18 17 24 17 6 0 8 -1 6 -3z m6 -36 c3 -5 0 -13 -6 -17
-7 -4 -9 -3 -5 4 3 5 0 13 -6 15 -9 4 -10 6 -1 6 6 1 14 -3 18 -8z m-64 -58
c-12 -20 -14 -14 -5 12 4 9 9 14 11 11 3 -2 0 -13 -6 -23z m-41 -43 c0 -5 -5
-10 -11 -10 -5 0 -7 5 -4 10 3 6 8 10 11 10 2 0 4 -4 4 -10z m-70 -20 c0 -5
-5 -10 -11 -10 -5 0 -7 5 -4 10 3 6 8 10 11 10 2 0 4 -4 4 -10z m-4 -57 c-3
-22 -32 -63 -46 -63 -13 0 -20 29 -8 36 7 4 8 3 4 -4 -4 -7 -1 -12 9 -12 9 0
13 5 10 10 -3 6 0 10 8 10 10 0 13 7 10 20 -3 11 -10 17 -16 13 -5 -3 -7 -2
-4 4 12 20 35 10 33 -14z m-33 -10 c-7 -2 -19 -2 -25 0 -7 3 -2 5 12 5 14 0
19 -2 13 -5z m-43 -13 c0 -5 -4 -10 -10 -10 -5 0 -10 5 -10 10 0 6 5 10 10 10
6 0 10 -4 10 -10z m-104 -27 c-2 -9 -9 -19 -17 -21 -11 -3 -11 -1 1 7 8 6 11
11 7 11 -5 0 -5 5 -2 10 9 15 14 12 11 -7z m39 -1 c-3 -3 -11 0 -18 7 -9 10
-8 11 6 5 10 -3 15 -9 12 -12z m-132 -54 c-2 -5 -10 -8 -18 -8 -8 0 -16 3 -18
8 -3 4 5 7 18 7 13 0 21 -3 18 -7z m151 -3 c-7 -18 -20 -19 -30 -3 -4 6 -3 8
4 4 6 -3 13 -2 17 4 9 15 15 12 9 -5z m-2834 -19 c0 -6 5 -4 10 4 7 12 10 12
10 1 0 -7 6 -11 15 -8 8 4 17 2 20 -4 4 -5 10 -7 15 -4 5 3 11 -4 15 -15 4
-11 11 -18 16 -14 5 3 6 11 3 17 -4 7 -3 8 1 4 5 -4 10 -13 11 -20 3 -21 -53
-15 -70 8 -8 11 -18 17 -22 12 -4 -4 -16 0 -26 10 -10 9 -18 13 -18 9 0 -4 -5
-4 -10 -1 -6 4 -8 10 -5 15 7 12 35 1 35 -14z m2600 0 c-7 -7 -13 -7 -20 0 -6
6 -3 10 10 10 13 0 16 -4 10 -10z m-70 -12 c0 -8 -19 -13 -24 -6 -3 5 1 9 9 9
8 0 15 -2 15 -3z m30 -4 c0 -5 -2 -10 -4 -10 -3 0 -8 5 -11 10 -3 6 -1 10 4
10 6 0 11 -4 11 -10z m85 -11 c-5 -16 -4 -19 5 -14 9 5 11 4 6 -3 -4 -7 -14
-12 -22 -12 -11 0 -12 4 -5 19 6 10 7 21 4 25 -3 3 -1 6 6 6 8 0 10 -7 6 -21z
m-145 -11 c0 -4 -9 -7 -20 -5 -29 5 -33 13 -5 13 14 0 25 -4 25 -8z m-2286
-30 c-7 -23 -6 -23 15 -4 11 11 24 16 28 13 3 -4 1 -7 -6 -7 -7 0 -9 -5 -6
-10 4 -7 12 -7 25 0 13 7 18 6 16 -3 -3 -20 -16 -37 -29 -37 -7 0 -3 8 8 16
20 16 20 16 -2 9 -15 -4 -23 -2 -23 6 0 7 -4 8 -12 2 -11 -8 -23 -9 -43 -4 -5
1 26 38 33 40 2 1 0 -9 -4 -21z m2201 12 c-3 -5 -14 -10 -23 -9 -14 0 -13 2 3
9 27 11 27 11 20 0z m-99 -20 c0 -12 -4 -16 -9 -11 -5 5 -6 14 -3 20 10 15 12
14 12 -9z m27 -5 c-3 -9 -8 -14 -10 -11 -3 3 -2 9 2 15 9 16 15 13 8 -4z m24
-7 c-3 -8 -6 -5 -6 6 -1 11 2 17 5 13 3 -3 4 -12 1 -19z m-2040 6 c-3 -3 -12
-4 -19 -1 -8 3 -5 6 6 6 11 1 17 -2 13 -5z m84 -21 c13 -16 12 -17 -3 -4 -10
7 -18 15 -18 17 0 8 8 3 21 -13z m1764 -13 c3 -5 1 -10 -4 -10 -6 0 -11 5 -11
10 0 6 2 10 4 10 3 0 8 -4 11 -10z m-184 -37 c2 1 1 -2 -3 -7 -14 -17 -8 -29
7 -16 8 7 15 9 15 4 0 -4 7 1 16 12 8 10 12 13 8 5 -5 -10 -3 -13 9 -8 11 4
14 2 10 -8 -3 -8 -9 -12 -14 -9 -6 3 -17 0 -26 -8 -31 -25 -124 -14 -122 15 0
9 2 9 6 0 10 -26 22 -12 12 14 -11 31 -2 25 15 -9 6 -12 18 -24 26 -26 13 -5
13 -3 2 11 -15 18 -7 41 10 31 8 -5 9 -1 5 12 -7 18 -6 18 6 2 8 -10 16 -17
18 -15z m-1531 -3 c0 -5 -2 -10 -4 -10 -3 0 -8 5 -11 10 -3 6 -1 10 4 10 6 0
11 -4 11 -10z m340 0 c0 -5 -5 -10 -11 -10 -5 0 -7 5 -4 10 3 6 8 10 11 10 2
0 4 -4 4 -10z m1055 0 c3 -5 1 -10 -4 -10 -6 0 -11 5 -11 10 0 6 2 10 4 10 3
0 8 -4 11 -10z m26 -9 c-6 -10 -7 -22 -3 -26 4 -5 1 -5 -5 -1 -8 4 -13 2 -13
-5 0 -7 -3 -10 -6 -7 -3 4 2 18 11 32 20 30 30 35 16 7z m-1361 5 c0 -2 -7 -7
-16 -10 -8 -3 -12 -2 -9 4 6 10 25 14 25 6z m1203 -33 c6 -9 13 -11 20 -5 15
12 48 12 41 0 -3 -4 0 -8 7 -8 8 0 8 -4 -1 -15 -12 -14 -15 -14 -30 0 -9 8
-20 12 -24 8 -3 -4 -14 -8 -23 -9 -12 -2 -13 0 -4 9 9 9 6 16 -11 29 -20 16
-21 17 -3 11 11 -3 24 -13 28 -20z m117 2 c0 -8 -4 -16 -9 -19 -12 -8 -34 21
-27 33 9 14 36 2 36 -14z m-803 0 c0 -8 -4 -15 -9 -15 -4 0 -8 7 -8 15 0 8 4
15 8 15 5 0 9 -7 9 -15z m34 -15 c5 0 9 8 9 17 0 9 3 14 6 10 3 -3 3 -15 -1
-27 -5 -17 -10 -19 -21 -9 -8 6 -13 19 -13 28 1 13 2 13 6 -1 2 -10 9 -18 14
-18z m53 24 c14 -5 14 -8 0 -30 -9 -13 -21 -21 -27 -17 -6 4 -3 11 9 20 16 12
17 15 4 23 -17 11 -9 13 14 4z m273 -13 c8 8 16 8 30 0 16 -10 15 -11 -7 -5
-20 5 -23 4 -13 -7 15 -15 43 -21 43 -8 0 5 8 9 17 9 15 0 14 -2 -3 -15 -18
-14 -18 -14 2 -9 23 6 41 -10 25 -20 -5 -4 -12 -2 -16 3 -3 6 -12 8 -20 4 -8
-3 -15 -1 -15 4 0 13 -33 12 -43 -1 -5 -6 -5 0 -2 13 5 15 3 21 -3 17 -6 -4
-16 4 -22 16 -10 20 -10 21 3 6 10 -12 17 -14 24 -7z m173 -8 c0 19 15 23 25
6 4 -6 13 -8 21 -5 9 3 11 0 7 -11 -4 -10 -2 -14 5 -9 6 3 13 2 17 -4 3 -5 -1
-10 -9 -10 -8 0 -18 5 -21 10 -4 7 -13 7 -26 0 -10 -6 -19 -7 -19 -3 0 4 -4 2
-9 -6 -8 -12 -12 -13 -26 -1 -10 8 -12 17 -6 23 5 5 7 17 4 26 -4 9 3 5 15 -9
18 -21 21 -22 22 -7z"/>
<path d="M5440 2850 c-8 -5 -12 -12 -9 -15 4 -3 12 1 19 10 14 17 11 19 -10 5z"/>
<path d="M5440 2210 c-8 -5 -12 -12 -9 -15 4 -3 12 1 19 10 14 17 11 19 -10 5z"/>
<path d="M5442 1623 c-24 -10 -33 -40 -15 -54 9 -8 14 -9 10 -2 -4 6 -1 14 5
16 10 4 9 6 -1 6 -11 1 -10 6 4 21 19 21 19 22 -3 13z"/>
<path d="M2264 1151 c20 -22 26 -25 26 -13 0 4 -10 13 -22 21 -23 14 -23 14
-4 -8z"/>
<path d="M4160 1010 c0 -4 6 -12 13 -18 10 -8 13 -6 13 7 0 10 -6 18 -13 18
-7 0 -13 -4 -13 -7z"/>
<path d="M3965 970 c3 -5 11 -10 16 -10 6 0 7 5 4 10 -3 6 -11 10 -16 10 -6 0
-7 -4 -4 -10z"/>
<path d="M4020 991 c0 -5 5 -13 10 -16 6 -3 10 -2 10 4 0 5 -4 13 -10 16 -5 3
-10 2 -10 -4z"/>
<path d="M3787 966 c-4 -10 -1 -13 8 -9 8 3 12 9 9 14 -7 12 -11 11 -17 -5z"/>
<path d="M3746 961 c-4 -5 -2 -12 3 -15 5 -4 12 -2 15 3 4 5 2 12 -3 15 -5 4
-12 2 -15 -3z"/>
<path d="M4710 3679 c0 -5 5 -7 10 -4 6 3 10 8 10 11 0 2 -4 4 -10 4 -5 0 -10
-5 -10 -11z"/>
<path d="M4835 3680 c-3 -5 -1 -10 4 -10 6 0 11 5 11 10 0 6 -2 10 -4 10 -3 0
-8 -4 -11 -10z"/>
<path d="M6570 3659 c0 -5 5 -7 10 -4 6 3 10 8 10 11 0 2 -4 4 -10 4 -5 0 -10
-5 -10 -11z"/>
<path d="M2556 3632 c-3 -6 1 -13 10 -16 8 -3 12 -11 8 -17 -4 -8 -3 -9 5 -5
9 6 9 12 -1 24 -7 10 -13 18 -14 20 -1 2 -5 -1 -8 -6z"/>
<path d="M2621 3627 c-6 -6 -11 -15 -11 -21 0 -5 7 -1 16 10 12 15 15 15 10 2
-2 -9 1 -19 8 -21 10 -4 12 1 9 16 -4 21 -4 21 11 3 13 -16 13 -22 3 -35 -10
-14 -10 -14 4 -4 9 7 18 11 20 8 3 -2 5 5 5 15 0 10 -2 17 -5 15 -2 -3 -11 1
-19 7 -19 16 -38 18 -51 5z"/>
<path d="M6480 3626 c0 -2 8 -10 18 -17 15 -13 16 -12 3 4 -13 16 -21 21 -21
13z"/>
<path d="M6540 3593 c0 -19 21 -27 33 -13 9 10 9 11 -2 5 -8 -4 -17 -2 -22 6
-6 9 -9 10 -9 2z"/>
<path d="M5416 3578 c3 -4 0 -8 -6 -8 -6 0 -8 -4 -5 -10 3 -5 11 -10 16 -10 6
0 8 4 4 9 -3 6 3 14 12 20 16 9 16 10 -4 8 -12 0 -19 -5 -17 -9z"/>
<path d="M2810 3561 c-7 -15 -7 -22 2 -27 7 -4 10 -4 6 1 -4 4 -3 16 3 26 5
11 7 19 5 19 -3 0 -10 -9 -16 -19z"/>
<path d="M2843 3553 c-15 -5 -17 -23 -4 -23 5 0 11 7 15 15 3 8 4 15 3 14 -1
0 -8 -3 -14 -6z"/>
<path d="M4210 3543 c0 -5 7 -18 15 -29 13 -18 14 -18 8 4 -5 22 -23 41 -23
25z"/>
<path d="M5460 3540 c-9 -6 -10 -10 -3 -10 6 0 15 5 18 10 8 12 4 12 -15 0z"/>
<path d="M2935 3520 c-3 -5 2 -10 12 -10 15 0 16 -2 3 -10 -13 -8 -13 -10 1
-10 9 0 20 8 23 17 4 10 4 14 0 10 -4 -4 -13 -2 -20 4 -8 7 -14 7 -19 -1z"/>
<path d="M4142 3523 c-6 -3 -10 -8 -7 -13 3 -4 -2 -13 -10 -20 -17 -14 -20
-46 -6 -54 5 -4 7 2 4 12 -2 10 5 29 17 43 12 13 19 19 16 14 -2 -6 -1 -17 3
-24 7 -10 9 -10 14 2 7 19 -14 46 -31 40z"/>
<path d="M5475 3509 c-4 -6 -5 -12 -2 -15 2 -3 7 2 10 11 7 17 1 20 -8 4z"/>
<path d="M6540 3513 c0 -6 8 -17 18 -24 16 -13 16 -13 2 6 -8 11 -16 22 -17
24 -2 2 -3 0 -3 -6z"/>
<path d="M4220 3485 c0 -8 29 -12 39 -5 9 5 4 8 -13 8 -14 0 -26 -2 -26 -3z"/>
<path d="M4137 3465 c-4 -8 -3 -16 1 -19 4 -3 9 4 9 15 2 23 -3 25 -10 4z"/>
<path d="M3110 3462 c0 -7 5 -12 11 -12 5 0 8 -4 4 -9 -3 -5 -1 -12 5 -16 6
-4 8 -10 5 -15 -8 -13 33 1 46 16 6 8 10 14 8 15 -31 6 -39 6 -39 -1 0 -5 6
-11 13 -14 6 -3 3 -5 -8 -3 -11 1 -20 8 -20 14 0 7 -6 18 -12 25 -10 9 -13 9
-13 0z"/>
<path d="M6556 3442 c-3 -5 1 -9 9 -9 8 0 12 4 9 9 -3 4 -7 8 -9 8 -2 0 -6 -4
-9 -8z"/>
<path d="M3097 3425 c-4 -8 -3 -16 1 -19 4 -3 9 4 9 15 2 23 -3 25 -10 4z"/>
<path d="M4036 3413 c-6 -14 -5 -15 5 -6 7 7 10 15 7 18 -3 3 -9 -2 -12 -12z"/>
<path d="M3840 3400 c-13 -10 -30 -16 -37 -13 -17 7 -16 -7 2 -31 8 -10 12
-22 10 -27 -3 -4 -1 -10 4 -14 6 -3 8 5 5 19 -3 20 -1 24 15 21 14 -2 18 1 15
10 -4 10 0 13 13 11 10 -2 23 2 30 9 9 10 6 15 -11 23 -17 8 -28 6 -46 -8z
m40 -9 c-8 -6 -18 -7 -22 -5 -5 3 -11 -1 -14 -9 -6 -16 -28 -17 -41 -2 -4 4
-3 5 3 2 6 -4 20 0 30 8 10 8 28 14 39 15 16 0 17 -2 5 -9z"/>
<path d="M6561 3401 c-8 -5 -9 -11 -3 -15 5 -3 12 1 16 9 6 17 6 18 -13 6z"/>
<path d="M3219 3398 c-6 -12 -4 -46 2 -42 4 2 5 12 2 22 -6 15 -5 16 13 2 18
-14 18 -14 5 3 -13 16 -19 20 -22 15z"/>
<path d="M3273 3378 c20 -18 20 -19 2 -13 -15 5 -17 3 -9 -5 9 -9 17 -9 33 0
18 9 23 8 31 -12 7 -18 9 -19 9 -5 1 10 5 16 11 12 5 -3 6 -13 3 -22 -5 -13
-3 -13 13 3 18 17 18 20 5 29 -9 5 -18 10 -21 10 -3 0 -10 4 -17 8 -6 4 -14 3
-18 -3 -9 -14 -28 -12 -22 3 3 7 -5 13 -19 13 l-24 2 23 -20z"/>
<path d="M5449 3381 c-13 -11 -21 -22 -18 -26 4 -3 19 5 34 19 32 30 19 35
-16 7z"/>
<path d="M3140 3386 c0 -2 8 -10 18 -17 15 -13 16 -12 3 4 -13 16 -21 21 -21
13z"/>
<path d="M6580 3386 c0 -2 8 -10 18 -17 15 -13 16 -12 3 4 -13 16 -21 21 -21
13z"/>
<path d="M6613 3335 c0 -8 4 -12 9 -9 5 3 6 10 3 15 -9 13 -12 11 -12 -6z"/>
<path d="M3399 3293 c-13 -16 -12 -17 3 -5 9 8 23 10 29 6 8 -4 9 -3 5 4 -10
17 -21 15 -37 -5z"/>
<path d="M5436 3295 c-9 -26 -7 -32 5 -12 6 10 9 21 6 23 -2 3 -7 -2 -11 -11z"/>
<path d="M3668 3283 c6 -3 10 -9 6 -14 -8 -14 2 -11 14 4 8 10 6 13 -11 14
-12 0 -16 -1 -9 -4z"/>
<path d="M3735 3281 c-3 -5 -2 -12 3 -15 5 -3 9 1 9 9 0 17 -3 19 -12 6z"/>
<path d="M6655 3280 c-3 -5 -1 -10 4 -10 6 0 11 5 11 10 0 6 -2 10 -4 10 -3 0
-8 -4 -11 -10z"/>
<path d="M3634 3266 c1 -8 5 -18 8 -22 4 -3 5 1 4 10 -1 8 -5 18 -8 22 -4 3
-5 -1 -4 -10z"/>
<path d="M5440 3170 c-8 -5 -12 -12 -9 -15 4 -3 12 1 19 10 14 17 11 19 -10 5z"/>
<path d="M6654 3129 c-3 -6 0 -17 7 -24 12 -11 17 -11 31 -1 16 12 16 14 -7
24 -17 8 -26 8 -31 1z m31 -17 c-3 -3 -11 0 -18 7 -9 10 -8 11 6 5 10 -3 15
-9 12 -12z"/>
<path d="M5490 3080 c0 -5 5 -10 11 -10 5 0 7 5 4 10 -3 6 -8 10 -11 10 -2 0
-4 -4 -4 -10z"/>
<path d="M5490 3025 c0 -8 4 -15 10 -15 5 0 7 7 4 15 -4 8 -8 15 -10 15 -2 0
-4 -7 -4 -15z"/>
<path d="M6585 2991 c3 -5 0 -13 -6 -16 -5 -4 -8 -13 -5 -20 6 -16 -47 -68
-59 -58 -5 5 -4 1 3 -8 10 -14 10 -18 -4 -23 -16 -6 -16 -8 0 -25 11 -12 25
-17 39 -13 19 5 19 6 3 12 -17 6 -17 7 -2 23 10 9 12 17 6 17 -6 0 -9 4 -5 10
3 5 13 6 23 3 13 -4 13 -2 -3 10 -19 15 -19 16 -2 23 10 4 16 13 13 21 -3 7 1
16 9 19 19 8 19 20 -1 28 -8 3 -12 2 -9 -3z m-32 -93 c-8 -13 -13 -33 -15 -55
-1 -9 -5 -10 -15 -2 -15 13 -18 23 -3 14 6 -3 11 -1 11 4 1 6 2 14 3 19 2 11
17 32 22 32 3 0 2 -6 -3 -12z"/>
<path d="M6646 2988 c3 -5 10 -6 15 -3 13 9 11 12 -6 12 -8 0 -12 -4 -9 -9z"/>
<path d="M6035 2961 c-3 -5 -2 -12 3 -15 5 -3 9 1 9 9 0 17 -3 19 -12 6z"/>
<path d="M6077 2949 c7 -7 15 -10 18 -7 3 3 -2 9 -12 12 -14 6 -15 5 -6 -5z"/>
<path d="M6588 2913 c7 -3 16 -2 19 1 4 3 -2 6 -13 5 -11 0 -14 -3 -6 -6z"/>
<path d="M6563 2764 c0 -8 4 -14 9 -14 5 0 6 -6 2 -12 -4 -7 -3 -9 1 -5 14 12
14 35 1 40 -7 3 -13 -1 -13 -9z"/>
<path d="M5435 2649 c-4 -6 -5 -12 -2 -15 2 -3 7 2 10 11 7 17 1 20 -8 4z"/>
<path d="M6670 2600 c-9 -6 -10 -10 -3 -10 6 0 15 5 18 10 8 12 4 12 -15 0z"/>
<path d="M6686 2582 c-3 -5 1 -9 9 -9 8 0 12 4 9 9 -3 4 -7 8 -9 8 -2 0 -6 -4
-9 -8z"/>
<path d="M6670 2556 c0 -2 6 -9 14 -15 11 -9 16 -9 22 0 4 8 3 9 -4 5 -7 -4
-12 -2 -12 3 0 6 -4 11 -10 11 -5 0 -10 -2 -10 -4z"/>
<path d="M5440 2530 c-8 -5 -12 -12 -9 -15 4 -3 12 1 19 10 14 17 11 19 -10 5z"/>
<path d="M6699 2513 c-12 -16 -12 -17 2 -6 9 7 20 9 24 5 5 -4 5 -1 1 6 -9 16
-11 15 -27 -5z"/>
<path d="M6735 2480 c-3 -5 -1 -10 4 -10 6 0 11 5 11 10 0 6 -2 10 -4 10 -3 0
-8 -4 -11 -10z"/>
<path d="M5490 2440 c0 -5 5 -10 11 -10 5 0 7 5 4 10 -3 6 -8 10 -11 10 -2 0
-4 -4 -4 -10z"/>
<path d="M5976 2434 c-5 -14 -4 -15 9 -4 17 14 19 20 6 20 -5 0 -12 -7 -15
-16z"/>
<path d="M6726 2398 c3 -5 10 -6 15 -3 13 9 11 12 -6 12 -8 0 -12 -4 -9 -9z"/>
<path d="M5490 2385 c0 -8 4 -15 10 -15 5 0 7 7 4 15 -4 8 -8 15 -10 15 -2 0
-4 -7 -4 -15z"/>
<path d="M6191 2387 c2 -1 12 -9 22 -16 15 -12 17 -12 11 3 -3 9 -13 16 -22
16 -8 0 -13 -1 -11 -3z"/>
<path d="M6268 2383 c7 -3 16 -2 19 1 4 3 -2 6 -13 5 -11 0 -14 -3 -6 -6z"/>
<path d="M6453 2365 c0 -8 4 -12 9 -9 5 3 6 10 3 15 -9 13 -12 11 -12 -6z"/>
<path d="M5446 2015 c-2 -6 4 -11 14 -11 10 0 17 3 14 7 -2 4 2 9 8 12 7 3 3
4 -9 4 -12 -1 -24 -6 -27 -12z"/>
<path d="M5485 1980 c-3 -5 -1 -10 4 -10 6 0 11 5 11 10 0 6 -2 10 -4 10 -3 0
-8 -4 -11 -10z"/>
<path d="M5499 1933 c-13 -16 -12 -17 4 -4 9 7 17 15 17 17 0 8 -8 3 -21 -13z"/>
<path d="M5505 1860 c-3 -6 1 -7 9 -4 18 7 21 14 7 14 -6 0 -13 -4 -16 -10z"/>
<path d="M5474 1669 c-3 -6 -2 -15 3 -20 5 -5 9 -1 9 11 0 23 -2 24 -12 9z"/>
<path d="M5430 1488 c-10 -21 -10 -21 3 -6 8 10 18 14 22 10 5 -4 5 -1 1 6
-10 17 -14 15 -26 -10z"/>
<path d="M5372 1482 c5 -15 -47 -69 -62 -64 -8 3 -12 1 -8 -3 4 -4 0 -14 -10
-21 -15 -12 -15 -15 -2 -24 15 -10 13 -11 -17 -14 -10 -1 -24 -5 -32 -10 -11
-7 -11 -10 0 -17 8 -5 9 -9 3 -9 -6 0 -11 -7 -11 -15 0 -8 4 -15 9 -15 4 0 8
7 8 16 0 9 5 12 13 8 10 -6 10 -4 0 7 -21 22 -14 33 8 13 15 -14 20 -15 17 -4
-2 8 3 14 10 12 8 -1 11 2 7 8 -3 5 1 13 9 16 9 3 13 11 10 16 -4 6 -10 5 -15
-3 -6 -10 -9 -10 -9 -2 0 19 18 25 41 12 14 -7 19 -7 15 0 -4 6 1 22 10 36 14
21 19 23 33 13 15 -12 15 -11 1 6 -14 18 -13 19 3 13 24 -9 21 -2 -8 17 -14 9
-24 13 -23 8z m-3 -39 c-40 -47 -42 -49 -34 -33 10 19 47 60 53 60 3 0 -5 -12
-19 -27z"/>
<path d="M1793 1375 c0 -8 4 -12 9 -9 4 3 8 9 8 15 0 5 -4 9 -8 9 -5 0 -9 -7
-9 -15z"/>
<path d="M1816 1354 c-5 -14 -4 -15 9 -4 17 14 19 20 6 20 -5 0 -12 -7 -15
-16z"/>
<path d="M5336 1347 c3 -10 9 -15 12 -12 3 3 0 11 -7 18 -10 9 -11 8 -5 -6z"/>
<path d="M1911 1315 c3 -24 -2 -36 -13 -29 -7 4 -8 3 -4 -5 6 -9 11 -9 21 -1
10 8 14 7 18 -2 3 -7 6 -8 6 -2 1 5 -6 19 -14 30 -8 10 -15 15 -14 9z"/>
<path d="M5193 1296 c0 -6 -4 -20 -7 -31 -5 -15 -4 -15 5 3 7 12 16 22 21 22
4 0 8 4 8 8 0 13 -27 10 -27 -2z"/>
<path d="M1954 1279 c-3 -6 -2 -15 3 -20 5 -5 9 -1 9 11 0 23 -2 24 -12 9z"/>
<path d="M2019 1233 c-11 -15 -11 -16 1 -5 21 18 29 15 24 -10 -4 -21 -4 -22
5 -3 6 12 10 15 10 6 1 -8 4 -11 7 -8 7 7 -14 37 -26 37 -4 0 -14 -8 -21 -17z"/>
<path d="M4946 1193 c-4 -9 -3 -20 1 -24 13 -13 34 6 27 24 -8 22 -20 22 -28
0z"/>
<path d="M2180 1139 c0 -5 5 -7 10 -4 6 3 10 8 10 11 0 2 -4 4 -10 4 -5 0 -10
-5 -10 -11z"/>
<path d="M4756 1113 c-11 -11 -6 -23 9 -23 8 0 15 4 15 9 0 13 -16 22 -24 14z"/>
<path d="M4751 1064 c0 -11 3 -14 6 -6 3 7 2 16 -1 19 -3 4 -6 -2 -5 -13z"/>
<path d="M2533 1055 c0 -8 4 -12 9 -9 4 3 8 0 8 -6 0 -6 4 -9 9 -5 5 3 12 -3
14 -12 4 -17 5 -17 6 0 0 10 6 15 11 12 6 -4 8 -11 5 -16 -4 -5 -2 -9 3 -9 19
0 20 28 3 44 -13 12 -20 13 -29 4 -8 -8 -15 -8 -25 0 -11 9 -14 8 -14 -3z m68
-12 c12 -16 12 -17 -2 -6 -9 7 -20 9 -24 5 -5 -4 -5 -1 -1 6 9 16 11 15 27 -5z"/>
<path d="M4402 1036 c-18 -23 -20 -24 -38 -8 -10 9 -16 13 -12 8 4 -4 2 -20
-3 -34 -10 -26 -10 -26 10 -8 19 18 21 18 27 1 6 -16 8 -16 16 -1 5 9 6 21 3
26 -10 16 7 11 19 -5 6 -9 25 -18 41 -20 21 -4 26 -3 15 4 -8 5 -18 7 -22 5
-4 -3 -8 0 -8 6 0 6 -4 9 -9 6 -14 -9 -21 20 -8 33 8 8 8 11 0 11 -6 0 -20
-11 -31 -24z"/>
<path d="M4650 1036 c0 -2 8 -10 18 -17 15 -13 16 -12 3 4 -13 16 -21 21 -21
13z"/>
<path d="M2510 1018 c0 -4 4 -8 9 -8 6 0 12 4 15 8 3 5 -1 9 -9 9 -8 0 -15 -4
-15 -9z"/>
<path d="M2805 998 c-30 -27 -35 -37 -24 -43 8 -5 11 -5 7 -1 -7 9 22 46 35
46 5 0 3 -8 -4 -17 -13 -16 -12 -17 3 -5 14 12 20 11 38 -1 11 -7 18 -16 15
-19 -3 -2 1 -5 9 -5 8 0 12 6 8 15 -4 11 -1 13 8 7 9 -5 11 -4 6 4 -4 6 -11 9
-16 6 -11 -7 -41 5 -36 14 3 4 1 13 -3 20 -7 10 -18 5 -46 -21z"/>
<path d="M2951 996 c-7 -9 -17 -13 -22 -10 -5 3 -9 0 -9 -5 0 -11 8 -13 48
-14 12 0 22 -4 22 -9 0 -5 5 -6 10 -3 6 3 10 11 10 17 0 6 -3 9 -6 5 -4 -3
-14 3 -23 14 -15 19 -18 20 -30 5z m28 -19 c0 -8 -2 -8 -6 1 -4 10 -8 10 -21
0 -15 -12 -16 -11 -3 4 14 19 32 15 30 -5z"/>
<path d="M2670 986 c0 -2 7 -7 16 -10 8 -3 12 -2 9 4 -6 10 -25 14 -25 6z"/>
<path d="M3124 978 c-4 -7 -3 -8 5 -4 6 4 14 0 17 -8 3 -9 10 -13 16 -10 5 3
4 11 -3 20 -14 17 -25 18 -35 2z"/>
<path d="M4373 971 c0 -11 5 -18 9 -15 4 3 5 11 1 19 -7 21 -12 19 -10 -4z"/>
<path d="M3411 973 c1 -4 -1 -16 -5 -25 -7 -16 -10 -16 -27 5 -19 22 -19 22
-2 -10 18 -32 18 -32 30 -10 7 12 12 16 13 10 0 -7 6 -13 14 -13 8 0 16 -6 19
-12 3 -7 4 -3 4 8 -1 14 -6 20 -15 17 -9 -4 -12 0 -10 12 2 10 -3 20 -10 22
-7 3 -12 1 -11 -4z"/>
<path d="M2835 960 c3 -5 8 -10 11 -10 2 0 4 5 4 10 0 6 -5 10 -11 10 -5 0 -7
-4 -4 -10z"/>
<path d="M3498 942 c-9 -11 -13 -11 -20 0 -5 8 -7 4 -5 -11 4 -27 21 -38 32
-22 4 7 -1 8 -12 4 -16 -6 -17 -5 -4 11 14 17 15 17 28 0 8 -10 13 -13 13 -5
0 7 5 9 13 5 6 -4 9 -4 5 1 -4 4 0 14 9 20 15 11 13 13 -16 11 -18 0 -37 -7
-43 -14z m42 2 c0 -8 -19 -13 -24 -6 -3 5 1 9 9 9 8 0 15 -2 15 -3z"/>
<path d="M2816 942 c-3 -5 1 -9 9 -9 8 0 12 4 9 9 -3 4 -7 8 -9 8 -2 0 -6 -4
-9 -8z"/>
<path d="M3962 924 c10 -10 20 -16 22 -13 3 3 -5 11 -17 18 -21 13 -21 12 -5
-5z"/>
<path d="M2985 920 c-3 -6 1 -7 9 -4 18 7 21 14 7 14 -6 0 -13 -4 -16 -10z"/>
<path d="M3180 926 c0 -2 7 -7 16 -10 8 -3 12 -2 9 4 -6 10 -25 14 -25 6z"/>
<path d="M3893 915 c-3 -9 -3 -18 -1 -21 3 -3 8 4 11 16 6 23 -1 27 -10 5z"/>
<path d="M3920 926 c0 -2 7 -7 16 -10 8 -3 12 -2 9 4 -6 10 -25 14 -25 6z"/>
<path d="M4020 920 c-9 -6 -10 -10 -3 -10 6 0 15 5 18 10 8 12 4 12 -15 0z"/>
<path d="M3550 910 c-9 -6 -10 -10 -3 -10 6 0 15 5 18 10 8 12 4 12 -15 0z"/>
<path d="M3606 904 c-23 -23 -20 -30 4 -9 11 10 20 20 20 22 0 7 -9 2 -24 -13z"/>
<path d="M3310 901 c0 -6 4 -12 8 -15 5 -3 9 1 9 9 0 8 -4 15 -9 15 -4 0 -8
-4 -8 -9z"/>
<path d="M3710 899 c0 -5 5 -7 10 -4 6 3 10 8 10 11 0 2 -4 4 -10 4 -5 0 -10
-5 -10 -11z"/>
<path d="M3673 885 c0 -8 4 -12 9 -9 5 3 6 10 3 15 -9 13 -12 11 -12 -6z"/>
</g>
</svg>
