<svg id="Layer_1" data-name="Layer 1" xmlns="http://www.w3.org/2000/svg" viewBox="0 0 596.28 842.89"><defs><style>.cls-1{fill:#264653;stroke:#231f20;stroke-miterlimit:10;}.cls-2{fill:#e9c369;}</style></defs><rect id="Background" class="cls-1" x="0.5" y="0.5" width="595.28" height="841.89"/><g id="THE_CRYPTO_MASTERS" data-name="THE CRYPTO MASTERS"><path class="cls-2" d="M238.46,427.94H221.75V420h42.77v7.92h-16.7v42.49h-9.36Z" transform="translate(0.5 0.5)"/><path class="cls-2" d="M316.36,420v50.41H307V448.82H280.94v21.61h-9.37V420h9.37v20.81H307V420Z" transform="translate(0.5 0.5)"/><path class="cls-2" d="M367.7,462.58v7.85H329.89V420h36.8v7.85H339.25V441h24.34v7.7H339.25v13.9Z" transform="translate(0.5 0.5)"/><path class="cls-2" d="M221.46,479.43v-3.6H371.37v3.6Z" transform="translate(0.5 0.5)"/><path class="cls-2" d="M147.34,534.22c0-15.05,11.52-25.92,27-25.92,8.21,0,15.27,2.95,19.95,8.43l-6,5.69a17.67,17.67,0,0,0-13.47-5.91c-10.44,0-18,7.35-18,17.71s7.56,17.72,18,17.72a17.54,17.54,0,0,0,13.47-6l6,5.76c-4.68,5.47-11.74,8.43-20,8.43C158.86,560.15,147.34,549.27,147.34,534.22Z" transform="translate(0.5 0.5)"/><path class="cls-2" d="M236.26,559.43,226,544.66a15.66,15.66,0,0,1-1.94.08H212.64v14.69h-9.36V509H224c13.25,0,21.46,6.77,21.46,17.93,0,7.63-3.89,13.25-10.73,15.91l11.59,16.57Zm-12.67-42.49h-11V537h11c8.21,0,12.46-3.74,12.46-10.08S231.8,516.94,223.59,516.94Z" transform="translate(0.5 0.5)"/><path class="cls-2" d="M276.94,541.64v17.79h-9.36V541.78L247.78,509h10l14.76,24.56L287.45,509h9.22Z" transform="translate(0.5 0.5)"/><path class="cls-2" d="M344.26,527c0,11.09-8.21,17.93-21.46,17.93H311.43v14.55h-9.36V509H322.8C336.05,509,344.26,515.79,344.26,527Zm-9.43,0c0-6.34-4.25-10-12.46-10H311.43v20h10.94C330.58,537,334.83,533.29,334.83,527Z" transform="translate(0.5 0.5)"/><path class="cls-2" d="M362.4,516.94H345.7V509h42.77v7.92H371.76v42.49H362.4Z" transform="translate(0.5 0.5)"/><path class="cls-2" d="M391.2,534.22c0-14.9,11.52-25.92,27.15-25.92s27.15,10.95,27.15,25.92S434,560.15,418.35,560.15,391.2,549.13,391.2,534.22Zm44.86,0c0-10.29-7.56-17.71-17.71-17.71s-17.72,7.42-17.72,17.71,7.56,17.72,17.72,17.72S436.06,544.52,436.06,534.22Z" transform="translate(0.5 0.5)"/><path class="cls-2" d="M171.1,648.43,171,615l-16.56,27.65h-4.18l-16.56-27.22v33H124.8V598h7.71l20,33.41L172.18,598h7.71l.07,50.41Z" transform="translate(0.5 0.5)"/><path class="cls-2" d="M226.25,636.76h-25.2l-5,11.67h-9.65L209.12,598h9.21l22.76,50.41h-9.8Zm-3.09-7.34-9.51-22-9.43,22Z" transform="translate(0.5 0.5)"/><path class="cls-2" d="M243.24,643.1l3.24-7.28a27.89,27.89,0,0,0,16.64,5.55c7.84,0,11.16-2.81,11.16-6.55,0-10.88-30-3.75-30-22.47,0-8.14,6.48-15.05,20.31-15.05,6.05,0,12.38,1.59,16.78,4.47l-3,7.27a27.91,27.91,0,0,0-13.89-4c-7.78,0-10.95,3-10.95,6.84,0,10.73,29.88,3.74,29.88,22.25,0,8.06-6.55,15-20.37,15C255.27,649.15,247.42,646.7,243.24,643.1Z" transform="translate(0.5 0.5)"/><path class="cls-2" d="M302.28,605.94h-16.7V598h42.77v7.92h-16.7v42.49h-9.37Z" transform="translate(0.5 0.5)"/><path class="cls-2" d="M373.21,640.58v7.85H335.4V598h36.8v7.85H344.76V619H369.1v7.7H344.76v13.9Z" transform="translate(0.5 0.5)"/><path class="cls-2" d="M416.62,648.43l-10.3-14.77a15.66,15.66,0,0,1-1.94.08H393v14.69h-9.36V598h20.74c13.25,0,21.46,6.77,21.46,17.93,0,7.63-3.89,13.25-10.73,15.91l11.59,16.57ZM404,605.94H393V626H404c8.21,0,12.46-3.74,12.46-10.08S412.16,605.94,404,605.94Z" transform="translate(0.5 0.5)"/><path class="cls-2" d="M432,643.1l3.24-7.28a27.91,27.91,0,0,0,16.64,5.55c7.85,0,11.16-2.81,11.16-6.55,0-10.88-30-3.75-30-22.47,0-8.14,6.49-15.05,20.31-15.05,6,0,12.39,1.59,16.78,4.47L467.24,609a28,28,0,0,0-13.9-4c-7.78,0-10.95,3-10.95,6.84,0,10.73,29.89,3.74,29.89,22.25,0,8.06-6.56,15-20.38,15C444.05,649.15,436.2,646.7,432,643.1Z" transform="translate(0.5 0.5)"/></g><rect class="cls-2" x="164.48" y="495.84" width="5.13" height="19.17"/><rect class="cls-2" x="177.32" y="495.84" width="5.13" height="19.17"/><rect class="cls-2" x="164.48" y="553.28" width="5.13" height="19.17"/><rect class="cls-2" x="177.32" y="553.28" width="5.13" height="19.17"/><path class="cls-2" d="M294.64,412.2" transform="translate(0.5 0.5)"/><ellipse class="cls-2" cx="295.14" cy="366.7" rx="88.3" ry="34.15"/><ellipse class="cls-2" cx="424.44" cy="298.53" rx="16.12" ry="12.98"/><rect class="cls-2" x="415.98" y="219.36" width="16.92" height="78.25"/><path class="cls-2" d="M422.07,299.16l-15.82,29.77a2.12,2.12,0,0,0,1.87,3.12h31.64a2.12,2.12,0,0,0,1.87-3.12l-15.82-29.77A2.12,2.12,0,0,0,422.07,299.16Z" transform="translate(0.5 0.5)"/><path class="cls-2" d="M303.19,301.25a24.65,24.65,0,0,1-17.1,0l-68.91-25.51a8,8,0,0,0-10.84,7.54V366.2H382.93V283.28a8,8,0,0,0-10.83-7.54Z" transform="translate(0.5 0.5)"/><path id="Top" class="cls-2" d="M444.75,236.05,299,290a12.72,12.72,0,0,1-8.77,0L144.53,236.05a13.14,13.14,0,0,1-.06-24.62l145.72-54.82a12.63,12.63,0,0,1,8.9,0l145.72,54.82C456.19,215.71,456.15,231.83,444.75,236.05Z" transform="translate(0.5 0.5)"/></svg>