<svg id="Layer_1" data-name="Layer 1" xmlns="http://www.w3.org/2000/svg" viewBox="0 0 596.28 596.28"><defs><style>.cls-1{fill:#264653;stroke:#231f20;stroke-miterlimit:10;}.cls-2{fill:#231f20;}.cls-3{fill:#e9c369;}</style></defs><circle class="cls-1" cx="298.14" cy="298.14" r="297.64"/><path class="cls-2" d="M283.77,375.65h1.05v7.21h3.45v.87h-4.5Z" transform="translate(0.5 -168.81)"/><path class="cls-2" d="M294.49,380.78a2.83,2.83,0,0,1-2.89,3.08,2.76,2.76,0,0,1-2.79-3,2.84,2.84,0,0,1,2.88-3.08A2.75,2.75,0,0,1,294.49,380.78Zm-4.61.06c0,1.27.73,2.23,1.76,2.23s1.77-.94,1.77-2.25c0-1-.49-2.23-1.74-2.23S289.88,379.74,289.88,380.84Z" transform="translate(0.5 -168.81)"/><path class="cls-2" d="M295.82,379.74c0-.68,0-1.27-.05-1.81h.93l0,1.14h0a1.74,1.74,0,0,1,1.61-1.27,1.39,1.39,0,0,1,.3,0v1a1.32,1.32,0,0,0-.36,0,1.49,1.49,0,0,0-1.42,1.36,3.37,3.37,0,0,0-.05.49v3.09h-1Z" transform="translate(0.5 -168.81)"/><path class="cls-2" d="M300.21,381a1.87,1.87,0,0,0,2,2,3.92,3.92,0,0,0,1.61-.3l.18.75a4.67,4.67,0,0,1-1.93.36,2.69,2.69,0,0,1-2.85-2.92c0-1.76,1-3.13,2.72-3.13a2.46,2.46,0,0,1,2.4,2.73,4.15,4.15,0,0,1,0,.49Zm3.1-.75a1.51,1.51,0,0,0-1.47-1.72,1.74,1.74,0,0,0-1.61,1.72Z" transform="translate(0.5 -168.81)"/><path class="cls-2" d="M305.64,379.5c0-.6,0-1.09-.05-1.57h.92l.05.93h0a2,2,0,0,1,1.82-1.06,1.71,1.71,0,0,1,1.64,1.16h0a2.44,2.44,0,0,1,.64-.76,2,2,0,0,1,1.29-.4c.77,0,1.9.5,1.9,2.51v3.42h-1v-3.28c0-1.12-.4-1.79-1.26-1.79a1.35,1.35,0,0,0-1.24,1,1.63,1.63,0,0,0-.09.53v3.58h-1v-3.48c0-.92-.41-1.59-1.21-1.59a1.45,1.45,0,0,0-1.31,1,1.49,1.49,0,0,0-.08.52v3.5h-1Z" transform="translate(0.5 -168.81)"/><path class="cls-2" d="M319.36,376.3a.65.65,0,0,1-1.3,0,.64.64,0,0,1,.66-.66A.62.62,0,0,1,319.36,376.3Zm-1.17,7.43v-5.8h1.05v5.8Z" transform="translate(0.5 -168.81)"/><path class="cls-2" d="M321,379.82c0-.74,0-1.34-.05-1.89h.95l0,1h0A2.28,2.28,0,0,1,324,377.8c1.4,0,2.46,1.18,2.46,2.95,0,2.08-1.27,3.11-2.64,3.11a2,2,0,0,1-1.79-.91h0v3.16h-1Zm1,1.55a1.88,1.88,0,0,0,0,.43,1.63,1.63,0,0,0,1.58,1.24c1.12,0,1.76-.91,1.76-2.25,0-1.16-.61-2.15-1.72-2.15a1.69,1.69,0,0,0-1.6,1.3,2,2,0,0,0-.07.43Z" transform="translate(0.5 -168.81)"/><path class="cls-2" d="M327.68,382.65a2.69,2.69,0,0,0,1.39.42c.77,0,1.13-.38,1.13-.86s-.3-.78-1.08-1.07c-1-.37-1.53-.95-1.53-1.64a1.78,1.78,0,0,1,2-1.7,2.77,2.77,0,0,1,1.42.36l-.26.76a2.32,2.32,0,0,0-1.19-.33c-.62,0-1,.36-1,.79s.35.69,1.11,1c1,.39,1.52.89,1.52,1.75,0,1-.79,1.74-2.17,1.74a3.3,3.3,0,0,1-1.63-.39Z" transform="translate(0.5 -168.81)"/><path class="cls-2" d="M337.43,382.15c0,.6,0,1.13.05,1.58h-.93l-.06-.94h0a2.18,2.18,0,0,1-1.92,1.07c-.91,0-2-.5-2-2.54v-3.39h1.06v3.21c0,1.11.33,1.85,1.29,1.85a1.52,1.52,0,0,0,1.39-1,1.57,1.57,0,0,0,.1-.54v-3.56h1.05Z" transform="translate(0.5 -168.81)"/><path class="cls-2" d="M339.19,379.5c0-.6,0-1.09-.05-1.57h.92l.05.93h0A2,2,0,0,1,342,377.8a1.71,1.71,0,0,1,1.64,1.16h0a2.46,2.46,0,0,1,.65-.76,2,2,0,0,1,1.28-.4c.77,0,1.91.5,1.91,2.51v3.42h-1v-3.28c0-1.12-.41-1.79-1.26-1.79a1.36,1.36,0,0,0-1.25,1,1.63,1.63,0,0,0-.09.53v3.58h-1v-3.48c0-.92-.4-1.59-1.21-1.59a1.45,1.45,0,0,0-1.31,1,1.49,1.49,0,0,0-.08.52v3.5h-1Z" transform="translate(0.5 -168.81)"/><g id="THE_CRYPTO_MASTERS" data-name="THE CRYPTO MASTERS"><path class="cls-3" d="M233,589.14H212.56v26.23H191.77V589.14H128.41V574.29l56.92-74.41h22.94L154.64,571h37.79V547.73h20.13V571H233Z" transform="translate(0.5 -168.81)"/><path class="cls-3" d="M246.88,557.63c0-38,20.79-59.4,48.18-59.4,27.55,0,48.34,21.45,48.34,59.4S322.61,617,295.06,617C267.67,617,246.88,595.57,246.88,557.63Zm74.91,0c0-27.89-10.89-40.76-26.73-40.76-15.68,0-26.57,12.87-26.57,40.76s10.89,40.75,26.57,40.75C310.9,598.38,321.79,585.51,321.79,557.63Z" transform="translate(0.5 -168.81)"/><path class="cls-3" d="M465.66,589.14H445.2v26.23H424.41V589.14H361.06V574.29L418,499.88h22.93L387.29,571h37.78V547.73H445.2V571h20.46Z" transform="translate(0.5 -168.81)"/></g><path class="cls-3" d="M295.14,459.2" transform="translate(0.5 -168.81)"/><ellipse class="cls-3" cx="298.14" cy="248.17" rx="73.52" ry="28.44"/><ellipse class="cls-3" cx="405.81" cy="191.41" rx="13.42" ry="10.81"/><rect class="cls-3" x="398.77" y="125.48" width="14.09" height="65.16"/><path class="cls-3" d="M403.44,361.75l-12.59,23.68a2.12,2.12,0,0,0,1.87,3.11h25.17a2.12,2.12,0,0,0,1.88-3.11l-12.59-23.68A2.11,2.11,0,0,0,403.44,361.75Z" transform="translate(0.5 -168.81)"/><path class="cls-3" d="M304.76,362.9a20.59,20.59,0,0,1-14.24,0l-57.39-21.25a6.7,6.7,0,0,0-9,6.28V417H371.16V347.93a6.7,6.7,0,0,0-9-6.28Z" transform="translate(0.5 -168.81)"/><path id="Top" class="cls-3" d="M422.63,308.6,301.29,353.52a10.45,10.45,0,0,1-7.31,0L172.64,308.6a10.94,10.94,0,0,1,0-20.5l121.34-45.64a10.51,10.51,0,0,1,7.41,0L422.69,288.1A10.94,10.94,0,0,1,422.63,308.6Z" transform="translate(0.5 -168.81)"/></svg>