<svg id="Layer_1" data-name="Layer 1" xmlns="http://www.w3.org/2000/svg" viewBox="0 0 596.28 596.28"><defs><style>.cls-1{fill:#264653;stroke:#231f20;stroke-miterlimit:10;}.cls-2{fill:#e9c369;}</style></defs><circle class="cls-1" cx="298.14" cy="298.14" r="297.64"/><g id="THE_CRYPTO_MASTERS" data-name="THE CRYPTO MASTERS"><path class="cls-2" d="M248.35,472.32h-13.9v-6.6h35.61v6.6H256.15v35.37h-7.8Z" transform="translate(0.5 -168.81)"/><path class="cls-2" d="M313.22,465.72v42h-7.79v-18h-21.7v18h-7.8v-42h7.8v17.33h21.7V465.72Z" transform="translate(0.5 -168.81)"/><path class="cls-2" d="M356,501.16v6.53H324.5v-42h30.63v6.54H332.29v10.91h20.26v6.42H332.29v11.57Z" transform="translate(0.5 -168.81)"/><path class="cls-2" d="M234.21,515.18v-3H359v3Z" transform="translate(0.5 -168.81)"/><path class="cls-2" d="M172.48,560.82c0-12.53,9.6-21.58,22.48-21.58,6.84,0,12.71,2.45,16.61,7l-5,4.74a14.75,14.75,0,0,0-11.22-4.92c-8.69,0-15,6.12-15,14.75s6.29,14.75,15,14.75a14.6,14.6,0,0,0,11.22-5l5,4.8c-3.9,4.55-9.77,7-16.66,7C182.08,582.4,172.48,573.35,172.48,560.82Z" transform="translate(0.5 -168.81)"/><path class="cls-2" d="M246.53,581.8,238,569.51a14.62,14.62,0,0,1-1.62.06h-9.47V581.8h-7.79v-42h17.26c11,0,17.87,5.63,17.87,14.92,0,6.36-3.24,11-8.93,13.25l9.65,13.79ZM236,546.43h-9.11v16.73H236c6.84,0,10.38-3.12,10.38-8.4S242.81,546.43,236,546.43Z" transform="translate(0.5 -168.81)"/><path class="cls-2" d="M280.4,567V581.8h-7.79V567.11l-16.49-27.27h8.33l12.29,20.44,12.41-20.44h7.68Z" transform="translate(0.5 -168.81)"/><path class="cls-2" d="M336.46,554.76c0,9.24-6.84,14.93-17.87,14.93h-9.47V581.8h-7.79v-42h17.26C329.62,539.84,336.46,545.47,336.46,554.76Zm-7.86,0c0-5.27-3.53-8.33-10.37-8.33h-9.11V563.1h9.11C325.07,563.1,328.6,560,328.6,554.76Z" transform="translate(0.5 -168.81)"/><path class="cls-2" d="M351.57,546.43H337.66v-6.59h35.61v6.59H359.36V581.8h-7.79Z" transform="translate(0.5 -168.81)"/><path class="cls-2" d="M375.55,560.82c0-12.41,9.59-21.58,22.6-21.58s22.6,9.11,22.6,21.58-9.59,21.58-22.6,21.58S375.55,573.23,375.55,560.82Zm37.35,0a14.75,14.75,0,1,0-14.75,14.75A14.3,14.3,0,0,0,412.9,560.82Z" transform="translate(0.5 -168.81)"/><path class="cls-2" d="M192.27,655.91l-.06-27.81-13.79,23h-3.48l-13.79-22.67v27.46h-7.43V614h6.41l16.67,27.81L193.17,614h6.41l.06,42Z" transform="translate(0.5 -168.81)"/><path class="cls-2" d="M238.19,646.2h-21l-4.14,9.71h-8l18.88-42h7.68l18.94,42h-8.15Zm-2.58-6.11-7.91-18.35-7.85,18.35Z" transform="translate(0.5 -168.81)"/><path class="cls-2" d="M252.34,651.48l2.7-6.06A23.24,23.24,0,0,0,268.89,650c6.53,0,9.29-2.34,9.29-5.46,0-9.05-24.94-3.12-24.94-18.7,0-6.78,5.4-12.53,16.91-12.53a26.63,26.63,0,0,1,14,3.71l-2.46,6.06a23.33,23.33,0,0,0-11.57-3.3c-6.48,0-9.11,2.52-9.11,5.7,0,8.93,24.88,3.11,24.88,18.52,0,6.72-5.46,12.47-17,12.47C262.35,656.51,255.82,654.47,252.34,651.48Z" transform="translate(0.5 -168.81)"/><path class="cls-2" d="M301.5,620.54H287.6V614h35.61v6.59H309.3v35.37h-7.8Z" transform="translate(0.5 -168.81)"/><path class="cls-2" d="M360.56,649.38v6.53H329.08V614h30.64v6.53H336.88v10.91h20.26v6.42H336.88v11.57Z" transform="translate(0.5 -168.81)"/><path class="cls-2" d="M396.71,655.91l-8.57-12.29a14.62,14.62,0,0,1-1.62.06h-9.47v12.23h-7.8V614h17.27c11,0,17.87,5.63,17.87,14.92,0,6.36-3.24,11-8.94,13.25l9.65,13.79Zm-10.55-35.37h-9.11v16.73h9.11c6.83,0,10.37-3.12,10.37-8.4S393,620.54,386.16,620.54Z" transform="translate(0.5 -168.81)"/><path class="cls-2" d="M409.54,651.48l2.7-6.06A23.24,23.24,0,0,0,426.09,650c6.53,0,9.29-2.34,9.29-5.46,0-9.05-24.94-3.12-24.94-18.7,0-6.78,5.4-12.53,16.91-12.53a26.63,26.63,0,0,1,14,3.71l-2.46,6.06a23.3,23.3,0,0,0-11.57-3.3c-6.48,0-9.11,2.52-9.11,5.7,0,8.93,24.88,3.11,24.88,18.52,0,6.72-5.46,12.47-17,12.47C419.55,656.51,413,654.47,409.54,651.48Z" transform="translate(0.5 -168.81)"/></g><rect class="cls-2" x="186.84" y="359.63" width="4.27" height="15.96"/><rect class="cls-2" x="197.53" y="359.63" width="4.27" height="15.96"/><rect class="cls-2" x="186.84" y="407.46" width="4.27" height="15.96"/><rect class="cls-2" x="197.53" y="407.46" width="4.27" height="15.96"/><path class="cls-2" d="M295.14,459.2" transform="translate(0.5 -168.81)"/><ellipse class="cls-2" cx="298.14" cy="248.17" rx="73.52" ry="28.44"/><ellipse class="cls-2" cx="405.81" cy="191.41" rx="13.42" ry="10.81"/><rect class="cls-2" x="398.77" y="125.48" width="14.09" height="65.16"/><path class="cls-2" d="M403.44,361.75l-12.59,23.68a2.12,2.12,0,0,0,1.87,3.11h25.17a2.12,2.12,0,0,0,1.88-3.11l-12.59-23.68A2.11,2.11,0,0,0,403.44,361.75Z" transform="translate(0.5 -168.81)"/><path class="cls-2" d="M304.76,362.9a20.59,20.59,0,0,1-14.24,0l-57.39-21.25a6.7,6.7,0,0,0-9,6.28V417H371.16V347.93a6.7,6.7,0,0,0-9-6.28Z" transform="translate(0.5 -168.81)"/><path id="Top" class="cls-2" d="M422.63,308.6,301.29,353.52a10.45,10.45,0,0,1-7.31,0L172.64,308.6a10.94,10.94,0,0,1,0-20.5l121.34-45.64a10.51,10.51,0,0,1,7.41,0L422.69,288.1A10.94,10.94,0,0,1,422.63,308.6Z" transform="translate(0.5 -168.81)"/></svg>