<svg id="Layer_1" data-name="Layer 1" xmlns="http://www.w3.org/2000/svg" viewBox="0 0 395.22 395.22"><defs><style>.cls-1{fill:#e9c369;}</style></defs><path class="cls-1" d="M297.64,76C188.5,76,100,164.46,100,273.6S188.5,471.21,297.64,471.21,495.25,382.74,495.25,273.6,406.77,76,297.64,76Zm88.29,292.47c0,18.86-39.53,34.15-88.29,34.15s-88.3-15.29-88.3-34.15V285.54A8,8,0,0,1,220.18,278l68.91,25.51a24.65,24.65,0,0,0,17.1,0L375.1,278a8,8,0,0,1,10.83,7.54Zm61.82-130.15-12.35,4.57v46.38c4.59,2.29,7.66,6.37,7.66,11,0,5-3.55,9.37-8.72,11.53l10.29,19.37a2.12,2.12,0,0,1-1.87,3.12H411.12a2.12,2.12,0,0,1-1.87-3.12l10.29-19.37c-5.17-2.16-8.72-6.51-8.72-11.53,0-4.66,3.07-8.74,7.66-11V249.14L302,292.25a12.6,12.6,0,0,1-8.77,0L147.53,238.31a13.14,13.14,0,0,1-.06-24.62l145.72-54.82a12.63,12.63,0,0,1,8.9,0l145.72,54.82C459.19,218,459.15,234.09,447.75,238.31Z" transform="translate(-100.03 -75.99)"/></svg>